<svg width="98" height="109" viewBox="0 0 98 109" fill="none" xmlns="http://www.w3.org/2000/svg">
<g clip-path="url(#clip0_303_891)">
<path fill-rule="evenodd" clip-rule="evenodd" d="M47.2521 9.26992e-06L50.9234 0.15234C52.0608 0.199541 52.909 0.388345 53.4659 0.720897C54.0229 1.0513 54.2863 1.58339 54.2542 2.31286C54.2071 3.4371 53.5045 4.08075 52.1443 4.24595V4.26956C53.7722 4.54203 54.5626 5.29081 54.5112 6.5116C54.4748 7.40628 54.1128 8.01774 53.4274 8.34601C52.742 8.67427 51.7674 8.81372 50.5079 8.76009L46.8965 8.6099L46.9051 8.37604L47.704 8.40822L48.0403 0.263906L47.2413 0.231723L47.2499 -0.00213623L47.2521 9.26992e-06ZM50.0987 8.50906L50.2701 4.38764L50.5507 4.39828C51.1162 4.42189 51.5039 4.57422 51.7138 4.85313C51.9237 5.13205 52.0158 5.54398 51.9944 6.08465L51.9687 6.73688C51.943 7.34406 51.8338 7.7989 51.641 8.10356C51.4482 8.40823 51.1269 8.55197 50.6771 8.53266L50.0987 8.50906ZM50.4372 0.364744L50.2808 4.1537L50.6 4.16657C51.0262 4.18373 51.3282 4.06788 51.506 3.81685C51.6838 3.56583 51.7845 3.1732 51.808 2.64112L51.8316 2.06184C51.8573 1.45466 51.8016 1.0277 51.6624 0.778826C51.5253 0.529948 51.2468 0.396927 50.8313 0.379763L50.4372 0.362599V0.364744ZM39.8388 0.890381L33.6442 2.47161H33.6421L33.7085 2.73337L34.4111 2.55314L36.401 10.3799L35.6984 10.5602L35.7648 10.8219L40.2672 9.67406L40.2008 9.41231L38.7229 9.78992L37.7975 6.15115L38.333 6.01384C38.7207 5.91514 39.0613 5.96234 39.3526 6.15973C39.6439 6.35712 39.9288 6.73687 40.2073 7.30114L40.4108 7.24964L39.5133 3.71815L39.3355 3.76321C39.3633 4.27169 39.2862 4.69864 39.102 5.04192C38.9199 5.3852 38.6372 5.60619 38.2559 5.70274L37.7204 5.84005L36.7351 1.96313L37.0693 1.87731C37.8318 1.68207 38.4444 1.69065 38.9092 1.90306C39.374 2.11332 39.8624 2.61322 40.3743 3.39633L40.5885 3.34269L39.8388 0.890381ZM24.6306 6.48372L28.6168 4.5592L28.7347 4.80379L27.5608 5.3702L31.063 12.6456L31.4614 12.4525C32.089 12.15 32.496 11.7166 32.6845 11.1523C32.873 10.5881 32.9651 9.81353 32.9651 8.82875L33.1964 8.71718L34.2353 11.4141L28.3684 14.2483L28.2506 14.0037L28.9039 13.6883L25.4017 6.41292L24.7484 6.7283L24.6306 6.48372ZM20.7922 18.7109C21.7839 18.8697 22.8142 18.5221 23.8831 17.6661L23.8809 17.6639C24.9519 16.81 25.511 15.8638 25.5603 14.8276C25.6095 13.7913 25.194 12.7207 24.3158 11.6179C23.4376 10.513 22.4951 9.87361 21.4884 9.69553C20.4838 9.5196 19.4599 9.84572 18.4232 10.6739C17.3865 11.502 16.836 12.4589 16.7717 13.5446C16.7075 14.6302 17.1144 15.7222 17.9905 16.8229C18.8687 17.9235 19.8005 18.5522 20.7922 18.7109ZM22.101 12.9009L22.6686 13.6132H22.6664C23.5104 14.6709 24.0266 15.4734 24.2151 16.0205C24.4036 16.5676 24.2451 17.0439 23.7396 17.4472C23.324 17.7798 22.8914 17.8699 22.4415 17.7133C22.2402 17.6425 21.9767 17.4665 21.6533 17.1855C21.3298 16.9044 20.8565 16.3723 20.2332 15.5892L19.6805 14.8962C19.1022 14.1732 18.6845 13.6089 18.4275 13.2056C18.2561 12.9245 18.1404 12.6906 18.0826 12.5061C18.0248 12.3216 17.9905 12.1285 17.9776 11.929C17.9648 11.7273 18.0076 11.5471 18.104 11.3862C18.2026 11.2253 18.3461 11.0687 18.5388 10.9142C18.7295 10.7597 18.9137 10.6546 19.0893 10.5988C19.3935 10.4937 19.7491 10.5645 20.1582 10.8155C20.518 11.0322 21.1649 11.7273 22.101 12.9009ZM17.2088 24.0532C17.453 23.7357 17.5515 23.4868 17.5023 23.3087C17.453 23.1307 17.2881 22.9333 17.0096 22.7187L15.1225 21.2598L14.6427 21.8841L14.4285 21.7189L16.5919 18.9126L16.8061 19.0778L16.5127 19.4576L19.2565 21.5795L19.143 21.7254C18.8903 21.7168 18.6825 21.8198 18.5176 22.0343C18.4469 22.1244 18.2969 22.4419 18.0656 22.9826C17.8343 23.5254 17.5965 23.9545 17.3502 24.2721C16.5341 25.3319 15.6173 25.9305 14.5977 26.07C13.5781 26.2094 12.4964 25.8383 11.3526 24.9522C10.2088 24.0661 9.55764 23.0792 9.40342 21.9914C9.24919 20.9015 9.56835 19.8459 10.3587 18.8182C10.665 18.4213 11.0206 18.063 11.4297 17.7412C11.8389 17.4193 12.068 17.2262 12.1173 17.1619C12.1666 17.0975 12.1901 17.0374 12.1859 16.9817C12.1816 16.9259 12.158 16.8529 12.1173 16.7585L12.2008 16.6512L14.3728 18.2067L14.2379 18.3827C13.3639 18.2153 12.6228 18.1509 12.0145 18.196C11.4062 18.2389 10.9499 18.4599 10.6436 18.8547C9.87679 19.848 10.4637 21.0946 12.4022 22.5943L13.1712 23.1886C14.1436 23.9417 14.9726 24.3879 15.6559 24.5274C16.3392 24.6668 16.8575 24.5102 17.2067 24.0554L17.2088 24.0532ZM4.11253 28.99L3.06939 32.1074L3.07153 32.1096L8.60427 35.5252L2.08193 35.0618L1.02808 38.2135L1.2487 38.2886L1.4629 37.6471L9.17832 40.2367L8.96412 40.8782L9.18475 40.9533L9.71596 39.3656L9.49534 39.2905L9.28114 39.932L1.96198 37.4754L1.97697 37.4282L10.2043 37.9045L10.6927 36.4456L3.7741 32.1739L3.78909 32.1267L11.0718 34.5726L10.8576 35.2141L11.0783 35.2892L12.2692 31.7298L12.0486 31.6547L11.8344 32.2962L4.11896 29.7066L4.33316 29.0651L4.11253 28.99ZM8.85071 46.5981C8.76503 47.967 8.33021 48.9646 7.54839 49.5933C6.76656 50.2219 5.67415 50.4922 4.27115 50.4043C2.86816 50.3163 1.78645 49.885 1.02819 49.1084C0.267788 48.3317 -0.0706457 47.2826 0.0128917 45.9545C0.096429 44.6264 0.541961 43.6502 1.34735 43.0216C2.15487 42.3951 3.26228 42.1248 4.66742 42.2127C6.0747 42.3007 7.14355 42.7126 7.87825 43.4443C8.61295 44.178 8.93639 45.2272 8.85071 46.596V46.5981ZM5.03584 44.7788L4.12764 44.7208C2.63039 44.6264 1.6815 44.6414 1.28095 44.7637C0.820419 44.8989 0.52911 45.1156 0.402733 45.4117C0.325621 45.579 0.28064 45.7871 0.265646 46.0317C0.250652 46.2785 0.26993 46.4909 0.323479 46.6711C0.377029 46.8513 0.484128 47.0036 0.640493 47.1281C0.796857 47.2525 0.96179 47.3555 1.13743 47.437C1.31308 47.5186 1.56369 47.5894 1.88713 47.6516C2.35836 47.731 3.05665 47.7996 3.97984 47.8575L4.86234 47.9133C5.86051 47.9756 6.57164 47.982 6.9979 47.9305C7.42415 47.879 7.73046 47.8018 7.91681 47.6988C8.33449 47.4692 8.5594 47.0895 8.59153 46.5574C8.63223 45.9094 8.3859 45.4739 7.85469 45.2465C7.32348 45.019 6.38101 44.8646 5.0337 44.7788H5.03584ZM3.14026 52.9488L0.11792 53.5774L1.30886 60.7455L4.3719 60.3593L4.33334 60.1276C3.23236 59.9603 2.45697 59.7693 2.00072 59.5548C1.54662 59.3381 1.27459 58.9734 1.18891 58.4542L1.16321 58.2954L9.14209 56.9652L9.31345 57.9972L9.56835 57.9542L8.83151 53.5216L8.57661 53.5646L8.74797 54.5965L0.769083 55.9268L0.745521 55.7809C0.659842 55.2638 0.788361 54.8347 1.13536 54.4936C1.48236 54.1546 2.16351 53.7169 3.17881 53.1805L3.14026 52.9488ZM11.0912 63.3523C10.9455 62.9683 10.712 62.6701 10.3929 62.4534C10.0737 62.2367 9.7053 62.2088 9.28761 62.3697C8.86992 62.5306 8.61289 62.8117 8.51221 63.215C8.41154 63.6184 8.39226 64.144 8.4501 64.7941C8.51007 65.4442 8.52935 65.9248 8.50793 66.2359C8.48651 66.547 8.42225 66.8602 8.31301 67.1735C8.09667 67.8021 7.57188 68.2741 6.73651 68.5938C6.05536 68.8555 5.37849 68.8362 4.70163 68.538C4.0269 68.2398 3.52782 67.6669 3.20438 66.8237C3.05016 66.4182 2.94734 65.972 2.89594 65.4849C2.84667 65.0001 2.80169 64.7018 2.76099 64.5946C2.72029 64.4873 2.60677 64.4208 2.42256 64.395L2.37329 64.2684L4.66093 63.2987L4.73161 63.4832C4.20683 64.1054 3.81913 64.6954 3.57066 65.2532C3.32219 65.8111 3.28792 66.3238 3.46784 66.7958C3.64777 67.2679 3.89624 67.5918 4.2154 67.7678C4.53241 67.9458 4.87299 67.963 5.23712 67.8235C5.60126 67.6841 5.81974 67.4223 5.89685 67.0361C5.97396 66.6521 5.98682 66.208 5.93541 65.7102C5.88614 65.2103 5.85615 64.8821 5.84759 64.7212C5.83902 64.5624 5.83474 64.3607 5.83474 64.1204C5.83474 63.8801 5.85187 63.6741 5.89043 63.5068C5.92684 63.3394 5.98467 63.1549 6.05964 62.9533C6.13675 62.7516 6.23957 62.5799 6.36809 62.434C6.65726 62.0865 7.05352 61.8161 7.55903 61.6209C8.38584 61.3034 9.14838 61.3077 9.84667 61.6338C10.545 61.9599 11.0569 62.5435 11.3782 63.3867C11.5453 63.8243 11.6802 64.3457 11.7787 64.9529C11.8794 65.56 11.9415 65.8947 11.9651 65.957C12.0058 66.0642 12.16 66.1243 12.4278 66.135L12.4899 66.296L9.80169 67.4588L9.72672 67.2636C10.2644 66.6714 10.6799 66.017 10.9776 65.3004C11.2754 64.5838 11.3118 63.9359 11.089 63.3523H11.0912ZM14.4648 70.5934C14.8332 71.1577 14.9167 71.6576 14.7218 72.0931L14.7197 72.0953C14.5248 72.5308 14.1114 72.9556 13.4795 73.3676L8.65786 76.5107L8.2209 75.8392L8.02598 75.9679L10.138 79.2183L10.3329 79.0896L9.96447 78.5232L14.4348 75.6075C15.403 74.9745 15.9213 74.2772 15.992 73.5113C16.0627 72.7454 15.7842 71.8829 15.1609 70.9238C14.5376 69.9648 13.8929 69.4327 13.2289 69.3276C12.5648 69.2225 11.8066 69.4477 10.9541 70.0034L6.37023 72.9921L6.00181 72.4235L5.80688 72.5523L6.78577 74.0584L6.98069 73.9318L6.54587 73.2603L11.2025 70.2244C11.9158 69.7588 12.5477 69.5636 13.0939 69.6365C13.6423 69.7095 14.0985 70.0292 14.4648 70.5934ZM18.3589 82.3958C16.6496 84.153 15.3409 84.5885 14.4305 83.7024H14.4327C14.075 83.3549 13.91 82.885 13.9358 82.2993C13.9636 81.7114 14.1328 80.9927 14.4455 80.1409L14.287 79.9864L12.4963 81.9689L12.5927 82.0633C12.6913 82.0311 12.7662 82.0204 12.8219 82.0204C12.8776 82.0247 12.9354 82.0525 12.9933 82.1105C13.0533 82.1684 13.2096 82.4087 13.4645 82.8356C13.7194 83.2626 14.0257 83.6488 14.3834 83.9985C15.3109 84.9039 16.3241 85.3416 17.4208 85.3116C18.5175 85.2837 19.5735 84.7494 20.5802 83.711C21.5869 82.6726 22.0817 81.6385 22.0582 80.6086C22.0367 79.5788 21.5462 78.5983 20.5888 77.665C20.2075 77.2938 19.7876 76.9741 19.3293 76.7038C18.8709 76.4356 18.6138 76.2726 18.5581 76.2189C18.5025 76.1631 18.4725 76.1095 18.4682 76.0537C18.4639 75.9979 18.4768 75.9207 18.5046 75.822L18.4082 75.7276L16.4354 77.635L16.594 77.7894C18.3568 77.0557 19.5627 77.0063 20.2075 77.635C20.6766 78.0919 20.8008 78.6755 20.5823 79.3835C20.3617 80.0916 19.8476 80.8639 19.0358 81.6985L18.3589 82.3958ZM60.1727 7.31404L60.359 10.1139L59.5151 9.89079L59.4551 10.1161L63.3407 11.148L63.4006 10.9228L62.8544 10.7769L62.0233 1.80654L61.0487 1.54694L55.8566 8.91887L55.2975 8.77084L55.2375 8.99611L57.0561 9.47885L57.1161 9.25357L56.225 9.01757L57.8208 6.6897L60.1727 7.31404ZM57.9964 6.45584L59.9371 3.63451H59.9392L60.147 7.02654L57.9964 6.45584ZM68.2992 3.97131L72.2362 5.99667L72.112 6.23696L70.9532 5.64051L67.269 12.8258L67.6631 13.0275C68.2821 13.3472 68.8733 13.4115 69.4366 13.2206C70 13.0296 70.6726 12.6391 71.4565 12.0448L71.6857 12.1628L70.1649 14.6194L64.3708 11.6393L64.4951 11.399L65.1398 11.7316L68.824 4.54845L68.1793 4.2159L68.3035 3.9756L68.2992 3.97131ZM80.3864 11.5192L76.9314 8.75147V8.74933L76.7621 8.96173L77.3276 9.41443L72.2918 15.7222L71.7263 15.2674L71.5571 15.4798L76.6443 19.5562L78.6235 17.4536L78.4222 17.2927C77.5354 17.7197 76.7986 17.9685 76.2095 18.0436C75.6183 18.1166 75.0528 17.9364 74.5088 17.5008L74.1639 17.2241L79.1997 10.9163L80.2172 11.7316L80.3864 11.5192ZM87.0739 18.1209L89.1323 21.0946C89.837 22.1137 90.2161 22.974 90.2697 23.6756C90.3211 24.3772 89.972 24.9908 89.218 25.5143C88.3826 26.0936 87.5965 26.1901 86.8597 25.804C86.1785 25.4392 85.4845 24.7462 84.7798 23.7271L84.7241 23.6456L82.0166 25.525L82.8927 26.7887L82.6999 26.9218L80.0032 23.0277L80.196 22.8947L80.65 23.5533L87.3373 18.9105L86.8811 18.2518L87.0739 18.1188V18.1209ZM88.7039 20.8843L84.9147 23.5147L85.0625 23.7271C85.3431 24.1326 85.6751 24.315 86.0586 24.2785C86.442 24.242 86.9432 24.0082 87.5622 23.5791L88.0463 23.2422C88.6182 22.8453 88.9695 22.4935 89.098 22.1909C89.2265 21.8863 89.158 21.543 88.8924 21.1589L88.7039 20.8865V20.8843ZM90.0618 31.4874L90.3039 32.0924L90.3082 32.086C90.426 32.3842 90.4088 32.6266 90.2568 32.8176C90.1025 33.0085 89.8134 33.1887 89.3871 33.3604L88.5539 33.6951C87.7464 34.0191 87.2494 34.3731 87.0631 34.7528C86.8746 35.1347 86.9067 35.6368 87.1573 36.2611C87.4058 36.8854 87.6842 37.2588 87.9884 37.3789C88.2926 37.4991 88.7852 37.4712 89.4642 37.2952L89.4085 37.0914C88.978 37.1858 88.6845 37.218 88.526 37.188C88.3675 37.1579 88.2626 37.0742 88.2069 36.9369C88.1533 36.7996 88.1855 36.6816 88.3054 36.5851C88.4254 36.4885 88.6824 36.3598 89.0787 36.201L89.6827 35.9586C90.3446 35.6925 90.7665 35.3793 90.9508 35.0231C91.135 34.667 91.1435 34.1628 90.9807 33.5127L91.015 33.4998C91.3299 34.1349 91.6919 34.5554 92.0967 34.7635C92.5037 34.9716 93.0285 34.9459 93.6754 34.6863C94.3222 34.4267 94.7206 34.0534 94.8706 33.5685C94.9477 33.3432 94.9563 33.0021 94.892 32.5451C94.8278 32.0881 94.5964 31.3651 94.2001 30.376L92.8164 26.926L92.6001 27.014L92.8978 27.7563L85.3473 30.7944L85.0496 30.052L84.8333 30.14L86.3219 33.8538L86.5383 33.7659L86.2405 33.0235L90.0618 31.4874ZM93.7892 29.9884L90.2782 31.4015L90.4238 31.7663C90.5973 32.1997 90.8608 32.4679 91.2099 32.5708C91.5591 32.6738 92.0346 32.603 92.6365 32.3627L92.9664 32.2297C93.5661 31.9873 93.9238 31.7277 94.0374 31.4466C94.1509 31.1677 94.1188 30.8051 93.941 30.3653L93.7892 29.9884ZM96.5906 37.6342L97.3318 41.3159L97.1026 41.361L96.9698 40.698L88.993 42.3071L89.1258 42.9701L88.8966 43.0173L88.1555 39.3356L88.3847 39.2905L88.5175 39.9535L96.4943 38.3422L96.3615 37.6793L96.5906 37.6342ZM89.3829 51.4319L97.7516 51.2496L97.7666 51.9254L98 51.9211L97.9636 50.2347L97.7302 50.239L97.7451 50.917L91.8097 51.0457L97.9079 47.6859L97.8351 44.2896L97.6016 44.2938L97.6166 44.9718L89.4814 45.1499L89.4664 44.4719L89.2329 44.4762L89.2693 46.1626L89.5028 46.1583L89.4878 45.4803L97.2054 45.313L89.3464 49.7091L89.3829 51.4319ZM96.1814 62.6143L93.1355 62.1079L93.1826 61.8784C94.3222 61.7453 95.1147 61.5844 95.5624 61.3913C96.0079 61.1982 96.2842 60.8464 96.3913 60.3315L96.4213 60.1877L88.5024 58.5443L88.2904 59.5698L88.0376 59.5162L88.9479 55.1158L89.2007 55.1694L88.9886 56.1949L96.9075 57.8384L96.9397 57.6818C97.0468 57.1669 96.9247 56.727 96.5777 56.3623C96.2307 55.9976 95.5752 55.5384 94.6092 54.9849L94.6563 54.7553L97.653 55.5019L96.1814 62.6143ZM93.6689 69.2095L95.0741 65.7295L94.8577 65.6416L94.605 66.2681L87.0631 63.2129L87.3158 62.5842L87.0995 62.4963L85.6943 65.9763L85.9107 66.0642L86.1634 65.4378L93.7054 68.4929L93.4526 69.1216L93.6689 69.2095ZM88.5711 77.7293L81.479 73.2774L82.3915 71.8163L91.3685 72.4686L84.8269 68.3642L84.4671 68.9371L84.27 68.8126L85.1632 67.3837L85.3603 67.5082L85.0004 68.081L91.8955 72.4085L92.2553 71.8356L92.4524 71.9601L90.651 74.8393L83.7131 74.2901L88.7446 77.4483L89.1045 76.8754L89.3015 76.9999L88.4083 78.4288L88.2113 78.3043L88.5711 77.7315V77.7293ZM76.8714 78.83C76.8479 78.6476 76.9764 78.4137 77.2613 78.1305L77.2527 78.1284C77.6597 77.7229 78.193 77.6349 78.8528 77.8624C79.5125 78.0919 80.275 78.6412 81.1425 79.5144L81.828 80.2031C83.5566 81.9431 83.9764 83.2561 83.0875 84.1422C82.734 84.4941 82.2521 84.6529 81.6438 84.6164C81.0354 84.5799 80.3093 84.4212 79.4632 84.1401L79.3069 84.2967L81.2582 86.1204L81.3546 86.0238C81.3268 85.923 81.3139 85.8479 81.316 85.7921C81.3203 85.7363 81.3503 85.6806 81.4081 85.6226C81.4681 85.5647 81.7187 85.4038 82.1664 85.1377C82.6119 84.8717 83.0146 84.5628 83.3681 84.2087C84.287 83.2948 84.7389 82.2885 84.7282 81.1879C84.7175 80.0872 84.2013 79.0252 83.1817 77.9975C82.1621 76.9698 81.1383 76.4592 80.1101 76.4656C79.082 76.4721 78.0945 76.9462 77.1477 77.8903C76.8629 78.1735 76.5715 78.5704 76.2717 79.0767C75.9718 79.5831 75.7812 79.877 75.6998 79.9585C75.507 80.1495 75.2864 80.2246 75.0379 80.1838L74.9072 80.3147L77.3512 82.7756L77.0107 83.1145L77.2013 83.3076L79.7117 80.8081L79.5211 80.6172L78.9641 81.1729L77.2827 79.4801C77.0342 79.229 76.8971 79.0124 76.8714 78.83ZM38.4914 84.2109V84.2116L38.4893 84.2109H38.4914ZM38.4914 84.2116C45.2809 86.513 52.702 86.5106 59.4807 84.2109V90.0423C59.4807 90.8126 59.0908 91.5313 58.4461 91.9518L56.1906 93.4215C54.4577 94.55 53.4253 96.4574 53.4253 98.5257V106.543C53.4253 107.899 52.3286 108.998 50.9749 108.998H46.9972C45.6435 108.998 44.5468 107.899 44.5468 106.543V98.5257C44.5468 96.4552 43.5143 94.55 41.7815 93.4215L39.526 91.9518C38.8812 91.5335 38.4914 90.8126 38.4914 90.0423V84.2116ZM61.7148 46.3127C61.7105 46.2934 61.7491 46.2784 61.8262 46.2698H61.8305C61.8733 46.3042 61.8969 46.3406 61.9011 46.3793L61.9076 46.4372C61.9072 46.4637 61.9068 46.4902 61.9063 46.5168C61.9059 46.5424 61.9054 46.5681 61.9049 46.5937C61.903 46.6982 61.9011 46.8026 61.9011 46.9071C61.899 47.0658 61.8669 47.2053 61.8026 47.3297C61.7705 47.3919 61.7298 47.4563 61.6784 47.5207C61.642 47.5657 61.6013 47.5872 61.5541 47.5936C61.5049 47.6 61.4599 47.585 61.4171 47.5507C61.3678 47.4778 61.3421 47.4327 61.3421 47.4134C61.3378 47.3748 61.3292 47.3404 61.3164 47.3125C61.3014 47.2847 61.3035 47.2503 61.3185 47.2096C61.3378 46.8556 61.4685 46.5573 61.7148 46.3127ZM60.8816 48.0206C60.8109 47.9112 60.7402 47.8018 60.6674 47.6923C60.6438 47.6559 60.5924 47.6237 60.511 47.5936C60.4896 47.5765 60.4404 47.5722 60.3632 47.5808C60.3247 47.5851 60.2797 47.6194 60.2283 47.6838C60.1469 47.8296 60.0676 47.9949 59.9927 48.1794C59.8235 48.5892 59.6992 48.956 59.6178 49.2779C59.5364 49.5997 59.4636 49.9816 59.3951 50.4193L59.4058 50.5051C59.3908 50.5458 59.3908 50.5845 59.4058 50.6231C59.4208 50.6617 59.4465 50.6767 59.485 50.6724C59.5471 50.7046 59.5943 50.7003 59.6307 50.6553C60.0184 50.4536 60.3354 50.1532 60.5839 49.7542C60.8323 49.3551 61.0337 48.9796 61.1879 48.6278C61.2029 48.587 61.2072 48.5377 61.2008 48.4797C61.1922 48.4025 61.1772 48.3553 61.1558 48.3381C61.0465 48.233 60.9566 48.1257 60.8859 48.0163L60.8816 48.0206ZM18.9158 49.1362C18.9158 32.5022 32.3781 19.0156 48.9871 19.0156C65.5939 19.0156 79.0584 32.5022 79.0584 49.1362C79.0584 65.7703 65.5939 79.2569 48.9871 79.2569C32.3803 79.2569 18.9158 65.7703 18.9158 49.1362ZM52.7484 52.1314C52.9669 51.7237 53.1147 51.3461 53.1918 50.9942L53.1896 50.9985C53.2668 50.6467 53.2325 50.3527 53.089 50.1146C52.9262 49.8786 52.6477 49.7048 52.2536 49.5932C51.8595 49.4817 51.5189 49.4431 51.2297 49.4752L50.2166 49.5911C50.1116 49.5439 50.0409 49.4345 50.0024 49.2628C49.9638 49.0912 49.9852 48.9324 50.0666 48.7865C50.1652 48.6192 50.3172 48.4454 50.5207 48.2652C50.7264 48.0871 50.947 47.9197 51.1826 47.7653C51.4182 47.6108 51.6624 47.4756 51.913 47.3598C52.1615 47.2418 52.3735 47.1645 52.5449 47.1259C52.622 47.1173 52.6863 47.0766 52.7355 47.0015C52.7869 46.9264 52.7869 46.8341 52.7355 46.7226C52.6177 46.5595 52.4742 46.4887 52.3007 46.508C52.0672 46.5166 51.7845 46.5724 51.4546 46.6775C51.1248 46.7848 50.797 46.9242 50.4757 47.098C50.1544 47.2718 49.8589 47.467 49.5911 47.6837C49.3212 47.9004 49.1413 48.1128 49.047 48.3188C48.8671 48.7908 48.8286 49.2306 48.9335 49.6383C48.9999 49.8936 49.1391 50.0974 49.3384 50.2648C49.2441 50.3013 49.1499 50.3377 49.0642 50.3871C48.835 50.5222 48.6101 50.651 48.3895 50.7733C48.021 50.9728 47.6462 51.1573 47.2649 51.3268C46.8836 51.4963 46.4874 51.6636 46.0761 51.8288C46.0033 51.876 45.9155 51.9039 45.8084 51.9168C45.7034 51.9297 45.6113 51.9404 45.5342 51.949C45.3414 51.6186 45.2514 51.3096 45.2686 51.0243C45.2836 50.7389 45.3564 50.4707 45.4849 50.2219C45.6649 49.9279 45.7891 49.6362 45.8533 49.3444C45.9176 49.0526 46.074 48.7951 46.3224 48.572C46.3953 48.5248 46.4295 48.4368 46.4253 48.3102C46.421 48.1815 46.4145 48.0807 46.406 48.0034C46.1768 47.8725 46.0054 47.7889 45.894 47.7524C45.7827 47.7159 45.6906 47.7224 45.6177 47.7696C45.4635 47.7867 45.3414 47.8361 45.2536 47.9133C45.1658 47.9927 45.0715 48.1064 44.9708 48.2544C44.5232 48.7758 44.0669 49.3208 43.6043 49.8915C43.1416 50.4622 42.6746 51.0093 42.2077 51.5328C42.1349 51.58 42.0706 51.6315 42.0192 51.6851C41.9678 51.7409 41.8885 51.8138 41.7814 51.9039C41.5801 52.0434 41.4987 51.9705 41.5351 51.683C41.5715 51.3955 41.6551 51.0286 41.7921 50.5823C41.9249 50.1382 42.0835 49.6748 42.2634 49.1942C42.4433 48.7157 42.5975 48.3488 42.7261 48.1C42.7603 48.0571 42.7218 47.982 42.6125 47.8768C42.574 47.8811 42.514 47.8725 42.4347 47.8532C42.3555 47.8339 42.2741 47.8082 42.1927 47.7781L41.9614 47.8039C41.8693 47.8554 41.805 47.9004 41.7707 47.9434C41.7365 47.9863 41.7043 48.0485 41.6743 48.13C41.5115 48.5977 41.3488 49.0461 41.1817 49.4774C41.0146 49.9065 40.8625 50.3656 40.7212 50.8505C40.6676 51.0844 40.6119 51.3247 40.5584 51.5649C40.5262 51.5971 40.4941 51.625 40.462 51.6572C40.3399 51.7795 40.2178 51.9061 40.0957 52.037C39.8537 52.3202 39.6116 52.5862 39.3674 52.8394C39.1232 53.0904 38.8662 53.3393 38.6027 53.586C38.3735 53.8091 38.1401 54.0301 37.9023 54.2533C37.6624 54.4764 37.4418 54.7167 37.2361 54.9742C37.1505 55.0621 37.0648 55.1394 36.9855 55.208C36.9063 55.2767 36.8206 55.3453 36.7306 55.414C36.465 55.6607 36.1951 55.8924 35.9167 56.1091C35.6361 56.328 35.3791 56.5876 35.1391 56.8879C35.106 56.9094 35.0782 56.9309 35.0525 56.9507L35.0449 56.9566C35.0192 56.9802 34.9871 57.0017 34.9507 57.0252C34.6572 57.1947 34.3873 57.3964 34.141 57.6303C33.8925 57.8641 33.6462 58.0937 33.3977 58.3168C32.9715 58.6987 32.5388 59.0613 32.0997 59.4046C31.6584 59.7479 31.2043 60.0826 30.7331 60.4109C30.4439 60.6211 30.1462 60.7949 29.8399 60.9386C29.5314 61.0802 29.2208 61.2197 28.9038 61.3527C28.6982 61.4342 28.4969 61.4815 28.3041 61.4943C28.1092 61.5051 27.9035 61.5051 27.6872 61.49C27.6465 61.475 27.6122 61.46 27.5801 61.4428C27.548 61.4257 27.5137 61.4214 27.4751 61.4257C27.1667 61.2862 26.9139 61.0502 26.7212 60.7198C26.5584 60.3272 26.4556 59.9281 26.4084 59.5226C26.3677 59.1557 26.357 58.7953 26.3742 58.4413C26.4191 57.9843 26.4813 57.5445 26.5605 57.1132C26.6376 56.6841 26.7297 56.2464 26.8368 55.8045C26.9825 55.2016 27.141 54.6051 27.3081 54.0194C27.4751 53.4337 27.6636 52.8458 27.8693 52.2537C27.9721 51.9683 28.0792 51.698 28.1863 51.4405C28.2934 51.1831 28.409 50.9106 28.5333 50.6231C28.6618 50.3721 28.7839 50.1189 28.9017 49.8614C28.9195 49.8224 28.9374 49.7833 28.9554 49.744C29.056 49.5239 29.1586 49.2995 29.2658 49.0719C29.63 48.3252 30.0112 47.5979 30.4097 46.8878C30.8081 46.1776 31.2429 45.4825 31.712 44.8023C31.9326 44.5041 32.1425 44.2059 32.3439 43.9098C32.5452 43.6116 32.7551 43.3134 32.9757 43.0151C33.2692 42.6697 33.5669 42.3221 33.8689 41.9746C34.171 41.627 34.4794 41.2987 34.7964 40.9876C34.9378 40.8546 35.0663 40.7323 35.1798 40.6208C35.2955 40.5092 35.424 40.4062 35.5697 40.3118C35.6061 40.2882 35.6425 40.2732 35.6811 40.2689C35.7003 40.2646 35.7325 40.2818 35.7753 40.3161C35.7775 40.3354 35.7817 40.344 35.7925 40.344C35.801 40.344 35.8074 40.3526 35.8096 40.3719C35.8117 40.3912 35.8224 40.3976 35.8417 40.3976C35.8053 40.5972 35.7475 40.786 35.6704 40.9597C35.5933 41.1357 35.5161 41.3159 35.439 41.5004C35.4112 41.6012 35.3919 41.6978 35.3833 41.7858C35.3726 41.8759 35.3555 41.9703 35.3276 42.0711C35.3084 42.2492 35.2848 42.423 35.2548 42.5925C35.227 42.7641 35.2013 42.9272 35.1798 43.0859L35.1413 43.2662L35.1027 43.4464C34.9485 43.972 34.8221 44.4998 34.7257 45.0298C34.6294 45.5597 34.5223 46.0853 34.4066 46.6067C34.3723 46.8255 34.3445 47.053 34.3231 47.2911C34.2995 47.5293 34.2738 47.7674 34.2417 48.0056C34.2074 48.2244 34.1881 48.4561 34.1881 48.7007C34.1881 48.9453 34.1795 49.177 34.1645 49.3937C34.1731 49.6469 34.2245 49.9151 34.3145 50.1983C34.3638 50.2905 34.4087 50.3334 34.4473 50.3291C34.5051 50.3227 34.5415 50.3077 34.5587 50.2862C34.6808 50.1554 34.7793 49.9966 34.8564 49.8121C34.9271 49.5696 34.9871 49.3272 35.0385 49.0869C35.0877 48.8466 35.1284 48.5977 35.1584 48.3403C35.1734 48.1236 35.2056 47.894 35.257 47.6537C35.3084 47.4134 35.3491 47.1838 35.3833 46.965C35.4455 46.6453 35.5226 46.3364 35.6168 46.0424C35.7089 45.7506 35.7882 45.4632 35.8546 45.1799C35.9424 44.7401 36.0495 44.3217 36.1823 43.9248C36.2993 43.575 36.4131 43.2218 36.5279 42.8653C36.5433 42.8173 36.5588 42.7693 36.5743 42.7212C36.6514 42.5345 36.7242 42.3522 36.7906 42.1677C36.857 41.9853 36.9298 41.8094 37.0091 41.6442C37.1904 41.2688 37.3678 40.9051 37.5413 40.5493L37.5682 40.4942C37.7502 40.1209 37.958 39.754 38.1915 39.3957C38.2279 39.3721 38.2579 39.2991 38.2836 39.179C38.2643 39.1811 38.2793 39.1489 38.3307 39.0846C38.3521 38.9258 38.3264 38.7885 38.2536 38.6683C38.1808 38.5503 38.0844 38.4774 37.9644 38.4517C37.883 38.4216 37.8123 38.4002 37.7524 38.3873C37.6924 38.3744 37.611 38.3551 37.5103 38.3272L37.1933 38.3637C36.9256 38.4323 36.6621 38.4238 36.3986 38.3358C36.0966 38.2521 35.801 38.2285 35.5119 38.2607C35.3598 38.2972 35.212 38.3186 35.0663 38.3251C34.9207 38.3315 34.7707 38.3444 34.6165 38.3615C34.3702 38.4302 34.1881 38.5482 34.0703 38.7177C33.9375 38.928 33.7897 39.1296 33.6269 39.3249C33.4641 39.518 33.3163 39.7218 33.1835 39.932C33.0507 40.1423 32.9093 40.3461 32.7551 40.5392C32.601 40.7344 32.4468 40.9274 32.2927 41.1204L32.2925 41.1207C32.1725 41.2708 32.089 41.3888 32.0397 41.4725C31.9455 41.6785 31.8362 41.863 31.7077 42.0239C31.577 42.1848 31.4571 42.3608 31.3414 42.5496C31.2086 42.7405 31.0887 42.9357 30.9837 43.1331C30.8787 43.3305 30.7695 43.5343 30.656 43.7425C30.6238 43.8047 30.5874 43.8669 30.5467 43.9313C30.506 43.9935 30.4589 44.0578 30.4075 44.1222C29.9898 44.738 29.6021 45.3602 29.2423 45.9866C28.8824 46.6131 28.5376 47.2611 28.2013 47.924C28.0449 48.2738 27.8885 48.6192 27.7322 48.9603C27.5737 49.3014 27.4387 49.664 27.3273 50.0481C27.2716 50.2498 27.2138 50.4514 27.1474 50.6553C27.081 50.8591 26.991 51.0457 26.8732 51.2152C26.8047 51.3011 26.749 51.4062 26.704 51.5285C26.6419 51.8482 26.5669 52.1657 26.4748 52.4789C26.3827 52.7943 26.2863 53.1011 26.1835 53.4079C25.8944 54.3005 25.6587 55.1844 25.4745 56.0555C25.2882 56.9266 25.1318 57.8212 25.0011 58.7352C24.9969 58.8725 24.9904 58.9948 24.984 59.1042C24.9776 59.2137 24.9797 59.3252 24.9926 59.4411C25.0354 59.8273 25.1082 60.2006 25.2068 60.561C25.3953 61.2025 25.7487 61.6531 26.2671 61.9063C26.6805 62.1144 27.1324 62.2967 27.6186 62.4577C27.6808 62.4898 27.7429 62.507 27.8007 62.5092C27.8607 62.5134 27.91 62.522 27.9507 62.537C28.167 62.5521 28.3726 62.5628 28.5697 62.5692C28.7646 62.5778 28.9681 62.5585 29.178 62.5156C29.675 62.4212 30.1419 62.2753 30.5789 62.0779C31.0137 61.8805 31.4421 61.651 31.8619 61.3892C32.0783 61.2283 32.2967 61.0717 32.5131 60.9193C32.7316 60.767 32.9458 60.5997 33.16 60.4194C33.6248 60.0332 34.0832 59.6492 34.5373 59.2652C34.9914 58.8811 35.4369 58.4692 35.876 58.0272C36.0195 57.9135 36.1566 57.7848 36.2873 57.6432C36.4158 57.5016 36.5529 57.3728 36.6964 57.2591C36.9984 56.9909 37.2854 56.7142 37.5553 56.4288C37.8273 56.1435 38.1122 55.8645 38.4142 55.5963C38.6413 55.3561 38.8641 55.1158 39.0804 54.8755C39.2967 54.6352 39.4981 54.3884 39.6844 54.131C39.8901 53.8735 40.0828 53.6118 40.2692 53.3457C40.3234 53.2684 40.377 53.1891 40.4307 53.1097C40.4724 53.048 40.5141 52.9862 40.5562 52.9252C40.5841 52.996 40.6141 53.0668 40.6548 53.1247C40.749 53.2599 40.8711 53.3886 41.021 53.5088C41.2781 53.7147 41.5158 53.7362 41.7322 53.5753C41.8821 53.5195 42.0278 53.4358 42.1713 53.32C42.3126 53.2063 42.439 53.1033 42.5461 53.0132C42.7453 52.7171 42.966 52.4124 43.2037 52.1013C43.4436 51.7902 43.6621 51.4877 43.8634 51.1895C43.8913 51.108 43.9384 51.0393 44.0005 50.9835C44.0626 50.9277 44.1376 50.8548 44.2254 50.7668C44.2533 50.9985 44.264 51.2131 44.2554 51.4083C44.2469 51.6036 44.2533 51.7795 44.2704 51.934C44.2683 52.0906 44.3197 52.2515 44.4268 52.4146C44.5339 52.5798 44.6603 52.7171 44.8102 52.8265C44.958 52.9359 45.1251 53.0196 45.3071 53.0775C45.4892 53.1355 45.6563 53.1462 45.8084 53.1076C46.0204 53.084 46.2068 53.0432 46.3653 52.9853C46.5259 52.9295 46.6973 52.8501 46.8815 52.7514C47.282 52.4918 47.6976 52.2344 48.1281 51.979C48.5587 51.7237 48.9507 51.4405 49.3062 51.1251C49.379 51.0801 49.4797 50.9299 49.6082 50.681C49.6447 50.6102 49.6768 50.5458 49.7046 50.4858C49.7157 50.4913 49.7256 50.4974 49.7356 50.5033C49.7449 50.5087 49.7543 50.5138 49.7646 50.518C49.9274 50.578 50.0795 50.6188 50.2187 50.6424C50.3579 50.666 50.5057 50.6681 50.66 50.651C50.7756 50.6381 50.917 50.6081 51.0883 50.5587C51.2576 50.5115 51.4204 50.4772 51.5746 50.46C51.9023 50.4235 52.0565 50.533 52.0373 50.7883C52.0158 51.0457 51.9237 51.3483 51.7588 51.7001C51.5939 52.052 51.3904 52.4081 51.1483 52.7686C50.9063 53.129 50.7264 53.3951 50.6085 53.5646C50.2637 53.9743 49.9445 54.3005 49.6489 54.5386C49.3533 54.7768 49.0021 55.075 48.5929 55.4354C48.563 55.517 48.6079 55.577 48.73 55.6114C48.8521 55.6457 49.0085 55.6521 49.2013 55.6307C49.4133 55.6071 49.6789 55.4848 49.9959 55.2617C50.313 55.0407 50.6428 54.7682 50.9877 54.4442C51.3325 54.1202 51.656 53.7555 51.9623 53.35C52.2686 52.9445 52.5299 52.539 52.7484 52.1314ZM73.7961 47.8009C73.8045 47.7777 73.8112 47.7589 73.8169 47.746L73.8298 47.7395C73.8362 47.7202 73.8383 47.6902 73.8341 47.6516C73.8683 47.6087 73.8448 47.5722 73.7634 47.5421L73.7055 47.5486C73.5749 47.6022 73.4656 47.673 73.3778 47.761C73.29 47.8511 73.1915 47.9305 73.0822 48.0013C72.943 48.1536 72.7952 48.3059 72.6367 48.4626C72.4782 48.6192 72.3304 48.7822 72.1933 48.9539C72.0562 49.1255 71.9084 49.2757 71.7456 49.4001C71.585 49.5267 71.435 49.6769 71.298 49.8485C71.283 49.8893 71.268 49.9151 71.2487 49.9279C71.2294 49.9387 71.2123 49.9558 71.1951 49.9773C71.0238 50.194 70.8481 50.3892 70.6618 50.5673C70.4776 50.7454 70.2869 50.9234 70.092 51.1015C70.0021 51.1702 69.9378 51.2067 69.8992 51.2109C69.865 51.256 69.835 51.2581 69.8114 51.2217C69.7729 51.226 69.7493 51.1895 69.7407 51.1123C69.7343 51.0736 69.7343 51.0329 69.7407 50.9921C69.745 50.9513 69.745 50.9213 69.745 50.902C69.8157 50.6746 69.88 50.4622 69.9357 50.2669C69.9892 50.0717 70.0556 49.8722 70.1306 49.6683C70.2163 49.4044 70.2998 49.1405 70.3769 48.8766C70.454 48.6149 70.5268 48.351 70.5954 48.0892C70.7475 47.7202 70.8803 47.3426 70.9938 46.9586C71.1052 46.5745 71.2273 46.1883 71.3601 45.8021C71.435 45.6176 71.4886 45.446 71.5207 45.2851C71.5507 45.1263 71.5743 44.9461 71.5914 44.7487L71.5743 44.6049C71.5014 44.4784 71.3751 44.4033 71.1973 44.384C70.9402 44.3539 70.7046 44.4204 70.4883 44.5813C70.3469 44.7144 70.2055 44.8431 70.062 44.9675C69.9185 45.0898 69.7771 45.21 69.6336 45.3237C69.5801 45.3687 69.5223 45.4202 69.4601 45.476C69.398 45.5318 69.353 45.6005 69.3231 45.682C69.2374 45.7914 69.156 45.8965 69.081 46.0038C69.006 46.1111 68.9161 46.2184 68.8111 46.3278L68.4277 46.8127C68.3913 46.8363 68.3549 46.8663 68.3206 46.8985C68.2863 46.9328 68.2499 46.9607 68.2135 46.9843C68.1214 47.0337 68.0421 47.0229 67.9757 46.9521C67.9522 46.9156 67.9372 46.8685 67.9308 46.8105C67.708 46.5616 67.4617 46.463 67.1939 46.5123C67.0204 46.5316 66.8962 46.5552 66.8212 46.5831C66.7677 46.6088 66.7098 46.626 66.652 46.6324C66.5942 46.6389 66.547 46.6646 66.5128 46.7075C66.4399 46.7547 66.3778 46.8105 66.3264 46.8749L66.1979 47.0358C66.1058 47.0851 66.0437 47.1323 66.0094 47.1753C65.9559 47.2203 65.8937 47.2332 65.823 47.2117C65.7524 47.1881 65.7138 47.1495 65.7074 47.0916L65.6902 46.9457C65.6688 46.7526 65.6131 46.6131 65.5253 46.5252C65.4696 46.3943 65.3882 46.3557 65.2768 46.4072C65.1783 46.4179 65.0755 46.4501 64.9641 46.5016C64.8484 46.5144 64.7778 46.5724 64.7499 46.6732C64.6621 46.7612 64.6064 46.8663 64.5807 46.9865C64.5726 47.0261 64.5606 47.065 64.5487 47.1041C64.5386 47.1369 64.5285 47.1698 64.5207 47.2032C64.3729 47.2568 64.1801 47.2976 63.9317 47.3254C63.6704 47.3555 63.4647 47.3984 63.3148 47.4542L63.0256 47.4864C62.8521 47.5057 62.7557 47.4392 62.7386 47.2847C62.7493 47.2053 62.7514 47.1366 62.745 47.0787L62.7086 46.7612C62.715 46.6432 62.7022 46.5402 62.6743 46.4565C62.6443 46.3707 62.6058 46.2827 62.5565 46.1905C62.488 46.1004 62.4301 46.0188 62.383 45.9459C62.3359 45.8729 62.2781 45.7914 62.2095 45.7013C62.1667 45.667 62.126 45.6477 62.0853 45.6412C62.0446 45.6369 62.0039 45.6176 61.9611 45.5833C61.7897 45.446 61.5712 45.4138 61.3056 45.4825C61.04 45.5511 60.8044 45.6176 60.5966 45.6798C60.4595 45.6949 60.3589 45.7464 60.2903 45.8322C60.1575 45.8665 60.059 45.9459 59.9947 46.0703C59.9176 46.2355 59.8469 46.39 59.7848 46.5338C59.7227 46.6796 59.652 46.8341 59.5727 46.9993C59.4892 47.1259 59.4121 47.2525 59.3371 47.3769C59.2622 47.5035 59.1958 47.6387 59.1336 47.7824C59.0715 47.9283 59.0201 48.0699 58.9773 48.2115C58.9366 48.3531 58.8937 48.4947 58.8509 48.6363C58.7674 48.9195 58.701 49.1513 58.6517 49.3336C58.6046 49.5139 58.5574 49.7456 58.5103 50.0245C58.4996 50.106 58.4653 50.2262 58.4054 50.3892C58.4118 50.4471 58.4011 50.4965 58.3775 50.5394C58.3518 50.5802 58.3347 50.6317 58.3218 50.6917C58.2897 50.7947 58.294 50.8998 58.3154 51.0071C58.2764 51.0321 58.2386 51.057 58.1998 51.0825C58.162 51.1074 58.1232 51.1329 58.0819 51.1595C57.6085 51.4684 57.0859 51.683 56.514 51.8074C56.1327 51.8889 55.8521 51.8739 55.6722 51.7559C55.4923 51.6379 55.3637 51.389 55.2802 51.0071C55.2631 50.8526 55.2481 50.6831 55.2374 50.4986C55.2267 50.3141 55.2309 50.1425 55.2524 49.9837C55.2674 49.767 55.2995 49.5675 55.3466 49.3873C55.3937 49.2049 55.4451 49.0032 55.4987 48.7822C55.5822 48.499 55.6743 48.2244 55.7707 47.9584C55.8671 47.6923 55.9571 47.4177 56.0428 47.1345C56.122 46.9693 56.1713 46.8062 56.1927 46.6475C56.2141 46.4887 56.2377 46.3492 56.2634 46.2291C56.2912 46.1476 56.3126 46.0811 56.3276 46.0296C56.3405 45.9802 56.3619 45.9137 56.3919 45.8322L56.4497 45.8257C56.5418 45.5983 56.6425 45.3816 56.756 45.1735C56.8696 44.9654 56.9617 44.7508 57.0345 44.5256C57.0859 44.2853 57.1844 44.1136 57.3279 44.0085C57.4715 43.9055 57.66 43.839 57.8913 43.8133L58.2104 43.7768C58.8038 43.6695 59.3992 43.573 59.9947 43.485C60.5902 43.3992 61.1749 43.3026 61.749 43.1975C61.8802 43.1728 62.0104 43.1484 62.1399 43.1241C62.5387 43.0492 62.9293 42.9759 63.3126 42.9014C63.6837 42.8324 64.0616 42.7611 64.4472 42.6884C64.5891 42.6616 64.7322 42.6346 64.8763 42.6075C65.9944 42.4809 66.9883 42.2106 67.8601 41.7986C67.2967 41.8222 66.7334 41.863 66.1743 41.9166C65.6153 41.9724 65.0626 42.011 64.5186 42.0325C64.0152 42.0883 63.4969 42.1569 62.9592 42.2385C62.4216 42.32 61.8904 42.3715 61.3656 42.3908C60.8065 42.4552 60.2496 42.5367 59.6948 42.6397C59.1401 42.7427 58.5489 42.7899 57.9234 42.7834C58.1226 42.3114 58.3518 41.8651 58.6067 41.4446C58.8637 41.0241 59.1315 40.6036 59.4164 40.1788C59.305 40.0543 59.2129 39.9385 59.1422 39.8291C59.0715 39.7196 58.9301 39.6767 58.7181 39.7003C58.5639 39.7175 58.4118 39.7561 58.2619 39.8119C58.1119 39.8677 57.9855 39.9599 57.8827 40.0887C57.8506 40.1316 57.8249 40.1788 57.812 40.2281C57.797 40.2775 57.7735 40.3247 57.7392 40.3676C57.6492 40.6143 57.5421 40.861 57.4136 41.1099C57.2851 41.3588 57.1587 41.6184 57.0324 41.8866C56.9253 42.3093 56.7346 42.7126 56.4669 43.0945L55.7729 43.1739L50.5957 43.7639C50.4415 43.7811 50.2744 43.809 50.0923 43.8497C49.9103 43.8905 49.7303 43.9785 49.5504 44.1179C49.6746 44.1823 49.7839 44.2488 49.8803 44.3153C49.9745 44.384 50.0838 44.429 50.2037 44.4548C50.5636 44.5299 50.9106 44.5706 51.2426 44.5706C51.5746 44.5728 51.9237 44.5513 52.29 44.5105C52.7912 44.4526 53.286 44.3861 53.7765 44.311C54.2671 44.2381 54.7426 44.1737 55.2052 44.1201C55.3402 44.105 55.458 44.1008 55.5565 44.1093C55.6551 44.1179 55.7622 44.1158 55.8778 44.1029C56.0021 44.3432 56.0278 44.5856 55.9592 44.8281C55.8821 45.0319 55.8178 45.225 55.76 45.4074C55.7043 45.5897 55.6165 45.7678 55.4987 45.9373C55.2759 46.3922 55.0853 46.8642 54.9268 47.3512C54.8956 47.4469 54.8645 47.5427 54.8333 47.6385C54.7059 48.0304 54.5782 48.4231 54.4491 48.8144C54.4063 49.1341 54.3527 49.4366 54.2885 49.7284C54.2242 50.018 54.1878 50.3013 54.1792 50.5759C54.2049 51.1423 54.417 51.64 54.8175 52.0734C55.2202 52.5068 55.7043 52.7321 56.2719 52.745C56.9574 52.7643 57.5807 52.5862 58.144 52.2086C58.3604 52.067 58.5296 51.8782 58.6667 51.6615C58.6707 51.6663 58.6747 51.6717 58.6788 51.6773C58.6857 51.6866 58.6929 51.6964 58.701 51.7044C58.8316 51.8267 59.0158 51.9018 59.2536 51.934C59.335 51.964 59.4057 51.9747 59.4635 51.9683L59.6648 51.9447C59.9112 51.8782 60.0954 51.7774 60.2175 51.6465C60.5152 51.359 60.8429 51.0093 61.1964 50.5973C61.5498 50.1854 61.8068 49.7434 61.9696 49.2757C62.0039 49.2328 62.0296 49.1856 62.0424 49.1341C62.0553 49.0848 62.0874 49.0161 62.1367 48.9324C62.1538 48.911 62.1667 48.8852 62.1731 48.8552C62.1795 48.8251 62.1988 48.7887 62.2331 48.7458C62.2695 48.7243 62.2995 48.7007 62.3273 48.6771C62.353 48.6557 62.3852 48.632 62.4216 48.6085C62.7108 48.5763 63.0021 48.4733 63.2955 48.3038C63.4797 48.2244 63.7111 48.1493 63.9874 48.0785C64.082 48.0553 64.1691 48.029 64.2538 48.0036C64.2708 47.9985 64.2876 47.9934 64.3044 47.9884C64.2744 48.1279 64.2508 48.2652 64.2444 48.4025C64.2187 48.5226 64.208 48.5934 64.2101 48.6127C64.199 48.6371 64.1882 48.6605 64.1778 48.683C64.1444 48.7556 64.1152 48.8188 64.0923 48.8745C64.0623 48.9474 64.0323 49.0333 64.0045 49.1341C63.9253 49.3014 63.8481 49.486 63.7732 49.6898C63.7003 49.8936 63.6232 50.0781 63.544 50.2433C63.4476 50.4128 63.4026 50.6231 63.4112 50.8762C63.4305 51.0543 63.5054 51.1959 63.6339 51.3011C63.7046 51.3933 63.7967 51.4319 63.9124 51.4191C63.9938 51.4512 64.0773 51.4555 64.163 51.4362C64.2487 51.4169 64.3065 51.3654 64.3365 51.2817C64.4886 51.0844 64.6021 50.8827 64.6771 50.6746C64.7199 50.533 64.7692 50.3999 64.8227 50.2755C64.8763 50.1532 64.9363 50.0288 65.0005 49.9043C65.0412 49.7434 65.0948 49.6061 65.159 49.4903C65.2233 49.3765 65.2983 49.265 65.3839 49.1577C65.4289 49.0354 65.5382 48.9625 65.7117 48.9431C65.7288 48.9217 65.7545 48.9196 65.7845 48.9346C65.8166 48.9496 65.8338 48.9775 65.838 49.0161C65.8273 49.2736 65.8081 49.4409 65.7781 49.5224C65.7331 49.6447 65.7031 49.7606 65.686 49.87C65.6688 49.9794 65.6474 50.0846 65.6196 50.1854C65.6003 50.1875 65.596 50.2283 65.6046 50.3055C65.656 50.4171 65.716 50.5137 65.7845 50.5952C65.853 50.6767 65.9387 50.7497 66.0437 50.8183C66.2921 50.9492 66.5042 50.9256 66.6798 50.7454C66.8212 50.6102 66.9219 50.4707 66.984 50.3249C67.0504 50.2197 67.1125 50.1189 67.1704 50.0245C67.2282 49.9301 67.2903 49.8292 67.3567 49.7241C67.4402 49.5975 67.5281 49.4645 67.6202 49.3272C67.7123 49.1899 67.798 49.0461 67.8793 48.9002C68.13 48.5377 68.387 48.1772 68.6483 47.8146C68.9096 47.452 69.1881 47.1087 69.4837 46.7805C69.5501 46.6947 69.6144 46.6174 69.6765 46.5531C69.7365 46.4866 69.8114 46.4093 69.8992 46.3213C69.9335 46.2784 69.9699 46.2548 70.0085 46.2505C70.0449 46.2269 70.0877 46.2227 70.1391 46.2355C70.1884 46.2505 70.2163 46.2763 70.2205 46.3149C70.2312 46.4115 70.2291 46.4801 70.2141 46.5209C70.2013 46.6003 70.1734 46.6818 70.1242 46.7655C70.0513 46.9886 69.9871 47.2074 69.9335 47.4177C69.8778 47.628 69.8157 47.8468 69.7429 48.0699C69.7343 48.1686 69.715 48.2652 69.6872 48.3553C69.6593 48.4475 69.6315 48.5441 69.6037 48.6449C69.5265 48.8294 69.4559 49.0182 69.3895 49.2113C69.3231 49.4044 69.2524 49.5932 69.1753 49.7778C69.1024 50.0009 69.0296 50.2111 68.9546 50.4085C68.8775 50.6059 68.8025 50.8097 68.7297 51.0178C68.6505 51.1873 68.5862 51.4062 68.5391 51.6701C68.4534 52.1314 68.6033 52.4961 68.9846 52.7643C69.1153 52.8866 69.2781 52.9359 69.4708 52.9145C69.5844 52.8823 69.6915 52.8458 69.7943 52.805C69.8971 52.7643 69.9913 52.6999 70.0792 52.612C70.3619 52.3652 70.6297 52.0498 70.8803 51.6701C71.0859 51.4105 71.2872 51.1616 71.4843 50.9213C71.6814 50.681 71.8827 50.4321 72.0883 50.1747C72.1933 50.0653 72.3004 49.9365 72.4096 49.7863C72.5189 49.6383 72.6453 49.5074 72.7888 49.3916C72.9216 49.2006 73.0758 49.0054 73.2493 48.8101C73.4207 48.6127 73.5727 48.4003 73.7034 48.1708C73.7698 48.0656 73.7955 47.9541 73.7827 47.8382C73.7876 47.8248 73.7921 47.8123 73.7961 47.8009Z" fill="url(#paint0_linear_303_891)"/>
</g>
<defs>
<linearGradient id="paint0_linear_303_891" x1="0.000488281" y1="-0.00213623" x2="57.8737" y2="104.063" gradientUnits="userSpaceOnUse">
<stop stop-color="#2EC4B6"/>
<stop offset="1" stop-color="#008FBC"/>
</linearGradient>
<clipPath id="clip0_303_891">
<rect width="98" height="109" fill="white"/>
</clipPath>
</defs>
</svg>
