<svg width="206" height="42" viewBox="0 0 206 42" fill="none" xmlns="http://www.w3.org/2000/svg">
<path fill-rule="evenodd" clip-rule="evenodd" d="M0 13.7853C0 6.58468 5.82881 0.746033 13.0173 0.746033C20.2073 0.746033 26.0347 6.58468 26.0347 13.7853C26.0347 20.986 20.2059 26.8246 13.0173 26.8246C5.82881 26.8246 0 20.986 0 13.7853ZM14.6467 15.082C14.7409 14.9063 14.8047 14.7422 14.838 14.5898H14.8409C14.8743 14.4388 14.8598 14.311 14.7974 14.2079C14.7264 14.1062 14.6061 14.0307 14.435 13.9828C14.264 13.9349 14.1161 13.9175 13.9915 13.932L13.5537 13.9814C13.5087 13.961 13.4783 13.9131 13.4609 13.8391C13.4435 13.765 13.4537 13.6968 13.4884 13.6329C13.5305 13.5617 13.5957 13.4862 13.6841 13.4078C13.7726 13.3309 13.8682 13.2582 13.9697 13.1915C14.0712 13.1247 14.177 13.0666 14.2857 13.0158C14.3944 12.9649 14.4858 12.9315 14.5597 12.9141C14.593 12.9112 14.6206 12.8923 14.6423 12.8604C14.6655 12.8284 14.6641 12.7878 14.6423 12.7399C14.5916 12.6687 14.5293 12.6382 14.4539 12.6469C14.3539 12.6498 14.2306 12.6731 14.0886 12.7195C13.9465 12.766 13.8045 12.8255 13.6653 12.901C13.5261 12.9751 13.3986 13.0608 13.2826 13.1537C13.1666 13.2481 13.0884 13.3381 13.0478 13.4281C12.9695 13.6314 12.9535 13.8216 12.9985 13.9988C13.0275 14.1091 13.0884 14.1977 13.1739 14.2703C13.1333 14.2848 13.0927 14.3008 13.055 14.3226C12.9564 14.3807 12.8593 14.4359 12.7637 14.4896C12.6042 14.5752 12.4418 14.6551 12.2766 14.7292C12.1113 14.8032 11.9403 14.8758 11.762 14.947C11.7301 14.9688 11.6924 14.9804 11.646 14.9862C11.5996 14.9905 11.5605 14.9949 11.5271 14.9992C11.4431 14.8569 11.4054 14.7234 11.4126 14.5999C11.4199 14.4765 11.4518 14.3618 11.5069 14.2529C11.5851 14.1251 11.6388 13.9988 11.6663 13.8725C11.6939 13.7461 11.762 13.6358 11.8693 13.5385C11.8997 13.5182 11.9142 13.4804 11.9127 13.4252C11.9113 13.3701 11.9084 13.3265 11.904 13.2931C11.804 13.2365 11.7301 13.2002 11.6823 13.1842C11.633 13.1682 11.5938 13.1711 11.5619 13.1915C11.4953 13.1987 11.4416 13.2205 11.4039 13.2539C11.3648 13.2887 11.3242 13.3381 11.2807 13.402C11.0865 13.6271 10.8893 13.8637 10.6893 14.1106C10.4892 14.3574 10.2877 14.5941 10.0848 14.8206C10.0529 14.841 10.0268 14.8642 10.0036 14.8874C9.98189 14.9107 9.94709 14.9426 9.90071 14.9818C9.81518 15.0428 9.77894 15.0109 9.79489 14.886C9.81083 14.7611 9.84707 14.6028 9.90651 14.4097C9.96449 14.2166 10.0326 14.0162 10.1109 13.8086C10.1892 13.6009 10.2559 13.4427 10.3109 13.3352C10.3254 13.3178 10.3095 13.2844 10.2617 13.2394C10.2457 13.2408 10.2196 13.2379 10.1848 13.2292C10.1486 13.219 10.1138 13.2089 10.079 13.1958L9.97899 13.2074C9.9384 13.2292 9.91085 13.2495 9.89636 13.2684C9.88041 13.2873 9.86737 13.3149 9.85432 13.3497C9.78474 13.553 9.71371 13.7476 9.64123 13.9334C9.5702 14.1193 9.50352 14.3168 9.44264 14.5273C9.41799 14.629 9.3948 14.7321 9.37161 14.8366C9.36436 14.8431 9.35747 14.8497 9.35059 14.8562C9.3437 14.8628 9.33682 14.8693 9.32957 14.8758C9.27593 14.9281 9.2223 14.9833 9.17011 15.0399C9.06429 15.1619 8.95992 15.278 8.8541 15.3869C8.74828 15.4958 8.63811 15.6047 8.5236 15.7107C8.42502 15.8066 8.32355 15.9039 8.22063 15.9997C8.11771 16.0955 8.02059 16.2001 7.93216 16.3119C7.89447 16.3496 7.85823 16.3845 7.82344 16.4135C7.78865 16.4426 7.75241 16.4716 7.71327 16.5021C7.59876 16.6081 7.48134 16.7083 7.36102 16.8027C7.24071 16.8971 7.12909 17.0089 7.02472 17.1395C7.00877 17.1497 6.99573 17.1599 6.98413 17.17C6.97253 17.1802 6.95949 17.1904 6.94354 17.2005C6.81598 17.2746 6.70001 17.3617 6.59274 17.4634C6.48547 17.565 6.3782 17.6637 6.27093 17.761C6.08683 17.9266 5.89984 18.0819 5.70994 18.2315C5.51859 18.3796 5.3229 18.5248 5.11851 18.6671C4.99384 18.7571 4.86483 18.8326 4.73292 18.8951C4.601 18.956 4.46619 19.0156 4.32848 19.0737C4.24005 19.1085 4.15308 19.1288 4.069 19.1346C3.98493 19.1419 3.8965 19.1405 3.80228 19.1346C3.79798 19.1329 3.79376 19.1311 3.78966 19.1295C3.77717 19.1244 3.76571 19.1198 3.75589 19.1143C3.74284 19.1071 3.7269 19.1056 3.71095 19.1071C3.57759 19.0461 3.46887 18.943 3.3848 18.8007C3.31522 18.6308 3.27028 18.458 3.24998 18.2823C3.23259 18.1226 3.22824 17.9672 3.23549 17.8133C3.25578 17.6158 3.28332 17.4241 3.31666 17.2383C3.35145 17.0524 3.39059 16.8637 3.43698 16.672C3.50076 16.4106 3.56889 16.1536 3.64137 15.8995C3.7153 15.6454 3.79503 15.3898 3.8849 15.1343C3.92984 15.0094 3.97623 14.8932 4.02262 14.7814C4.06476 14.6766 4.112 14.5666 4.16195 14.4504L4.17192 14.4271C4.22701 14.3182 4.28064 14.2093 4.33138 14.0975C4.36006 14.0351 4.38967 13.9714 4.41968 13.9067C4.44276 13.857 4.46607 13.8068 4.48938 13.7563C4.64739 13.4339 4.81264 13.1189 4.98514 12.811C5.15765 12.5032 5.34609 12.2026 5.54904 11.9079C5.64471 11.7786 5.73603 11.6494 5.82301 11.5216C5.90853 11.3938 5.99986 11.2646 6.09553 11.1354C6.22165 10.9858 6.35066 10.8348 6.48112 10.6852C6.61159 10.5357 6.7464 10.3934 6.88266 10.2583C6.93999 10.205 6.99218 10.1543 7.03923 10.1085L7.04791 10.1001C7.0972 10.0521 7.15373 10.0071 7.21606 9.96648C7.23201 9.95631 7.24941 9.94905 7.26535 9.9476C7.27405 9.94615 7.2871 9.95341 7.30594 9.96793C7.30594 9.97664 7.30884 9.97955 7.31319 9.97955C7.31754 9.97955 7.32044 9.98245 7.32044 9.99116C7.32189 9.99987 7.32623 10.0028 7.33493 10.0028C7.31899 10.0899 7.29434 10.1712 7.261 10.2467C7.22766 10.3222 7.19432 10.4006 7.16098 10.4805C7.14793 10.5241 7.14069 10.5647 7.13634 10.6039C7.13199 10.6431 7.12329 10.6838 7.11169 10.7273C7.103 10.8043 7.09285 10.8798 7.0798 10.9539C7.06676 11.0279 7.05516 11.0991 7.04646 11.1673C7.04211 11.1934 7.03632 11.2196 7.03052 11.2457L7.03052 11.2457C7.02617 11.2718 7.02038 11.298 7.01458 11.3241L7.01457 11.3241C6.94644 11.5521 6.89281 11.7801 6.85077 12.0095C6.80873 12.2389 6.76379 12.4669 6.71306 12.692C6.69856 12.7863 6.68551 12.8851 6.67682 12.9882C6.66667 13.0913 6.65507 13.1944 6.64203 13.2975C6.62753 13.3918 6.61883 13.492 6.61883 13.598C6.61883 13.704 6.61448 13.8028 6.60869 13.8971C6.61304 14.0075 6.63478 14.1237 6.67392 14.2456C6.69421 14.2848 6.71451 14.3037 6.73045 14.3023C6.75654 14.2994 6.77249 14.2921 6.77974 14.2834C6.83192 14.2268 6.87541 14.1585 6.90875 14.0787C6.93919 13.9741 6.96529 13.8696 6.98703 13.765C7.00877 13.6605 7.02617 13.553 7.03922 13.4412C7.04501 13.3468 7.05951 13.2481 7.08125 13.1435C7.103 13.0404 7.12184 12.9403 7.13634 12.8459C7.16388 12.7079 7.19722 12.5743 7.23781 12.4466C7.2784 12.3202 7.31174 12.1954 7.34073 12.0734C7.37842 11.8832 7.42626 11.7017 7.48279 11.5303C7.53932 11.359 7.59586 11.1847 7.65239 11.009C7.68428 10.9292 7.71617 10.8493 7.74517 10.7695C7.77416 10.691 7.8046 10.6141 7.83939 10.5429L7.85043 10.52C7.92913 10.3568 8.0053 10.1989 8.08147 10.0449C8.1612 9.88371 8.25107 9.72544 8.3511 9.57007C8.36704 9.55845 8.38009 9.52796 8.39168 9.47569C8.38299 9.47569 8.39023 9.46262 8.41198 9.43503C8.42068 9.36679 8.40908 9.30725 8.37864 9.25498C8.3482 9.20271 8.30616 9.17221 8.25397 9.1606C8.21918 9.14753 8.18874 9.13882 8.16265 9.13301C8.13656 9.1272 8.10177 9.11849 8.05828 9.10687L7.92057 9.12284C7.80605 9.15334 7.69153 9.14898 7.57701 9.11123C7.44655 9.07638 7.31754 9.06476 7.19287 9.07928C7.12764 9.0938 7.06241 9.10397 7.00008 9.10687C6.93774 9.10978 6.87251 9.11558 6.80583 9.12284C6.69856 9.15188 6.62028 9.20271 6.56955 9.27676C6.51156 9.36824 6.44778 9.45536 6.37675 9.53958C6.30717 9.6238 6.24194 9.71092 6.18541 9.8024C6.12887 9.89388 6.06654 9.981 5.99986 10.0652C5.9665 10.1073 5.93314 10.1491 5.89978 10.1909C5.86646 10.2326 5.83314 10.2743 5.79981 10.3164C5.74763 10.3818 5.71139 10.4326 5.68965 10.4689C5.64906 10.5575 5.60122 10.6373 5.54614 10.707C5.49105 10.7767 5.43742 10.8537 5.38813 10.935C5.33015 11.0178 5.27796 11.102 5.23302 11.1876C5.21344 11.2238 5.19387 11.2605 5.17407 11.2976C5.14696 11.3483 5.11945 11.3999 5.09096 11.4519C5.07647 11.4781 5.06052 11.5056 5.04313 11.5332C5.02428 11.5608 5.00399 11.5884 4.98224 11.616C4.80105 11.8832 4.63289 12.1518 4.47779 12.4233C4.32268 12.6949 4.17192 12.9751 4.02696 13.2626C3.95883 13.4151 3.89215 13.5632 3.82402 13.7113C3.75589 13.8579 3.69791 14.0148 3.64862 14.1817C3.62398 14.2689 3.59933 14.356 3.57034 14.4446C3.54135 14.5331 3.50221 14.613 3.45148 14.6871C3.42104 14.7234 3.39639 14.7684 3.37755 14.8221C3.35001 14.96 3.31666 15.098 3.27753 15.233C3.23694 15.3695 3.1949 15.5031 3.15141 15.6352C3.02675 16.0229 2.92383 16.4048 2.8441 16.7823C2.76437 17.1599 2.69624 17.5461 2.63971 17.9425C2.63826 18.0021 2.63536 18.0558 2.63246 18.1022C2.62956 18.1487 2.63101 18.1966 2.63681 18.2475C2.65565 18.4144 2.68609 18.5771 2.72958 18.7324C2.81221 19.0098 2.96441 19.2043 3.1891 19.3147C3.36885 19.4033 3.56454 19.4831 3.77474 19.5528C3.80083 19.5674 3.82692 19.5761 3.85301 19.5761C3.87911 19.5775 3.90085 19.5804 3.91825 19.5877C4.01247 19.5949 4.10089 19.5993 4.18642 19.6022C4.27194 19.6051 4.35892 19.5978 4.45025 19.579C4.66478 19.5369 4.86628 19.4744 5.05617 19.3888C5.24462 19.3045 5.43017 19.2043 5.61137 19.0911C5.70414 19.0214 5.79837 18.9531 5.89259 18.8878C5.98681 18.821 6.07959 18.7499 6.17236 18.6714L6.22185 18.6301C6.40517 18.4771 6.58726 18.3252 6.76814 18.1719C6.96529 18.0064 7.15808 17.8264 7.34798 17.6361C7.41031 17.5868 7.46974 17.5301 7.52628 17.4692C7.58136 17.4082 7.6408 17.353 7.70313 17.3036C7.83359 17.1875 7.95681 17.0669 8.07422 16.9435C8.19019 16.8201 8.31485 16.6996 8.44532 16.5834C8.54389 16.4789 8.63956 16.3758 8.73379 16.2712C8.82656 16.1667 8.91354 16.0592 8.99471 15.9489C9.08459 15.8371 9.16866 15.7238 9.24839 15.6091C9.26476 15.5851 9.28114 15.5608 9.2976 15.5364C9.32196 15.5004 9.34653 15.464 9.37161 15.4276C9.3832 15.4595 9.39625 15.49 9.41365 15.5147C9.45423 15.5728 9.50642 15.628 9.57165 15.6802C9.68327 15.7703 9.78474 15.779 9.87896 15.7093C9.94275 15.6861 10.0065 15.6483 10.0689 15.5989C10.1312 15.5496 10.1848 15.506 10.2312 15.4668C10.3167 15.3376 10.4124 15.2069 10.5153 15.0718C10.6183 14.9368 10.7139 14.8061 10.8009 14.6769C10.814 14.642 10.8328 14.613 10.8603 14.5883C10.8864 14.5636 10.9198 14.5317 10.9575 14.4939C10.9705 14.5956 10.9734 14.6871 10.9705 14.7727C10.9676 14.8584 10.9705 14.9339 10.9778 15.0007C10.9778 15.0675 10.9995 15.1372 11.0459 15.2083C11.0923 15.2795 11.1474 15.339 11.2126 15.3869C11.2778 15.4349 11.3503 15.4712 11.4286 15.4958C11.5083 15.5205 11.5793 15.5249 11.646 15.5089C11.7373 15.4987 11.8185 15.4813 11.8866 15.4566C11.9562 15.432 12.0302 15.3986 12.1099 15.355C12.2824 15.2417 12.4636 15.1299 12.6491 15.0196C12.8361 14.9107 13.0057 14.7872 13.1594 14.6508C13.1913 14.6304 13.2348 14.5651 13.2899 14.4576C13.294 14.4494 13.298 14.4415 13.3019 14.4338C13.3131 14.4116 13.3233 14.3914 13.3319 14.372C13.3366 14.3735 13.341 14.376 13.3455 14.3786C13.3494 14.3808 13.3534 14.3831 13.358 14.385C13.4276 14.4112 13.4928 14.4286 13.5537 14.4388C13.6131 14.4489 13.6769 14.4489 13.7436 14.4417C13.7943 14.4359 13.8552 14.4228 13.9291 14.401C14.0016 14.3807 14.0726 14.3662 14.1393 14.3589C14.2814 14.3429 14.3481 14.3908 14.3394 14.5012C14.3307 14.613 14.2901 14.7437 14.219 14.8961C14.148 15.0472 14.0596 15.2025 13.9552 15.3579C13.8508 15.5133 13.7726 15.628 13.7218 15.702C13.5725 15.8806 13.4348 16.0215 13.3072 16.1246C13.1797 16.2277 13.0275 16.3584 12.8506 16.5137C12.8376 16.5486 12.8579 16.5747 12.9101 16.5892C12.9622 16.6052 13.0304 16.6081 13.113 16.5979C13.2043 16.5878 13.3188 16.534 13.4566 16.4382C13.5928 16.3424 13.7363 16.2233 13.8856 16.0839C14.0349 15.9445 14.1756 15.7862 14.3075 15.6106C14.4394 15.4334 14.5524 15.2577 14.6467 15.082ZM23.7612 13.1958C23.7631 13.1907 23.7648 13.1864 23.766 13.1827L23.7776 13.1842C23.7791 13.174 23.7805 13.1624 23.7791 13.145C23.795 13.1276 23.7834 13.1116 23.7487 13.0985L23.724 13.1014C23.6675 13.1247 23.6196 13.1552 23.5819 13.1929C23.5443 13.2307 23.5022 13.2655 23.4544 13.296C23.395 13.3628 23.3297 13.4296 23.2616 13.4964C23.1935 13.5632 23.1297 13.6343 23.0702 13.7084C23.0108 13.7824 22.9456 13.8478 22.876 13.9015C22.805 13.9552 22.7412 14.0206 22.6818 14.0946C22.6745 14.1135 22.6687 14.1237 22.66 14.1295C22.6513 14.1353 22.6441 14.1425 22.6368 14.1513C22.5629 14.2456 22.4861 14.3299 22.4063 14.4068C22.3266 14.4838 22.244 14.5607 22.1599 14.6377C22.1208 14.6682 22.0932 14.6842 22.0773 14.6856C22.0628 14.7045 22.0497 14.7059 22.0396 14.69C22.0222 14.6914 22.0135 14.6754 22.0091 14.642C22.0062 14.6246 22.0062 14.6072 22.0091 14.5898C22.0106 14.5723 22.0106 14.5593 22.0106 14.5506C22.041 14.4518 22.0686 14.3603 22.0932 14.2761C22.1164 14.1905 22.1454 14.1048 22.1773 14.0162C22.215 13.9015 22.2512 13.7882 22.2846 13.6735C22.3179 13.5603 22.3498 13.4456 22.3788 13.3323C22.444 13.1726 22.502 13.01 22.5513 12.843C22.6006 12.676 22.6542 12.509 22.7107 12.342C22.7426 12.2622 22.7673 12.1881 22.7803 12.1184C22.7934 12.0487 22.8035 11.9717 22.8108 11.8861L22.8035 11.8236C22.7716 11.7685 22.7165 11.7365 22.6397 11.7278C22.5281 11.7147 22.4266 11.7438 22.3324 11.8135C22.2715 11.8716 22.2106 11.9267 22.1483 11.9805C22.086 12.0342 22.0251 12.085 21.9628 12.1344C21.9396 12.1532 21.9135 12.175 21.8874 12.1997C21.8613 12.2229 21.841 12.2534 21.8279 12.2883C21.7917 12.3348 21.7569 12.3812 21.7236 12.4277C21.6902 12.4741 21.6511 12.5206 21.6062 12.5685L21.4395 12.7776C21.4235 12.7878 21.4076 12.7994 21.3931 12.8139C21.3771 12.8284 21.3626 12.8415 21.3467 12.8517C21.3061 12.8735 21.2728 12.8691 21.2438 12.8386C21.2322 12.8226 21.2264 12.8023 21.2235 12.7776C21.1263 12.6702 21.0205 12.6266 20.9046 12.6484C20.8292 12.6571 20.7755 12.6673 20.7437 12.6789C20.719 12.6905 20.6944 12.6978 20.6697 12.7007C20.6451 12.7036 20.6248 12.7137 20.6103 12.7326C20.5784 12.7529 20.5509 12.7776 20.5291 12.8052C20.5206 12.816 20.5125 12.8262 20.5049 12.8357C20.4932 12.8504 20.4828 12.8634 20.474 12.8749C20.4349 12.8952 20.4073 12.9156 20.3928 12.9344C20.3697 12.9548 20.3421 12.9591 20.3117 12.9504C20.2812 12.9403 20.2638 12.9228 20.2609 12.8981L20.2537 12.8357C20.245 12.7515 20.2203 12.6905 20.1827 12.6527C20.1595 12.5961 20.1232 12.5801 20.0754 12.6019C20.0334 12.6063 19.9884 12.6208 19.9406 12.6426C19.8913 12.6484 19.8594 12.6731 19.8478 12.7166C19.8101 12.7544 19.7855 12.7994 19.7739 12.8517C19.7704 12.8662 19.766 12.8807 19.7615 12.8954C19.7566 12.9115 19.7516 12.9279 19.7478 12.9446C19.684 12.9678 19.5999 12.9853 19.4927 12.9969C19.3796 13.0085 19.2912 13.0274 19.2259 13.0521L19.1013 13.0666C19.0259 13.0753 18.9838 13.0463 18.9766 12.9795C18.9809 12.9461 18.9824 12.9156 18.9795 12.8909L18.9636 12.7529C18.9665 12.7007 18.9621 12.6571 18.9491 12.6208C18.936 12.5845 18.9201 12.5468 18.8983 12.5061C18.8679 12.4669 18.8432 12.432 18.8229 12.4001C18.8026 12.3681 18.778 12.3333 18.7476 12.2941C18.7287 12.2796 18.7113 12.2709 18.6939 12.268C18.6765 12.2651 18.6591 12.2563 18.6403 12.2418C18.5649 12.1823 18.4707 12.1678 18.3562 12.1983C18.2417 12.2288 18.1387 12.2563 18.0489 12.2839C17.9909 12.2897 17.9459 12.3115 17.9169 12.3493C17.859 12.3638 17.8169 12.3986 17.7894 12.4524C17.7546 12.5235 17.7242 12.5903 17.6981 12.6527C17.672 12.7166 17.6415 12.7834 17.6067 12.8546C17.5719 12.9098 17.5372 12.9649 17.5053 13.0187C17.4734 13.0738 17.4429 13.1319 17.4168 13.1944C17.3893 13.2568 17.3676 13.3192 17.3487 13.3802C17.3409 13.406 17.3334 13.4316 17.3259 13.457C17.3152 13.4931 17.3047 13.5288 17.2936 13.5646C17.2559 13.6881 17.2269 13.7882 17.2066 13.8667C17.1864 13.9451 17.1661 14.0453 17.1458 14.1658C17.1414 14.2006 17.1269 14.2529 17.1008 14.324C17.1037 14.3487 17.0994 14.3705 17.0892 14.3894C17.0776 14.4083 17.0704 14.43 17.0646 14.4562C17.0515 14.5012 17.053 14.5462 17.0617 14.5927C17.0345 14.6104 17.0083 14.6272 16.9799 14.6454C16.9735 14.6495 16.9669 14.6537 16.9602 14.658C16.7558 14.7916 16.5297 14.8845 16.2818 14.9383C16.1166 14.9746 15.9948 14.9673 15.918 14.9165C15.8411 14.8657 15.7846 14.7582 15.7484 14.5927C15.7411 14.5259 15.7339 14.4518 15.7295 14.372C15.7237 14.2921 15.7266 14.2166 15.7353 14.1483C15.7411 14.054 15.7556 13.9683 15.7759 13.8899C15.7962 13.8115 15.8179 13.7244 15.8411 13.6285C15.8774 13.5065 15.9165 13.3875 15.9585 13.2728C16.0006 13.1581 16.0412 13.039 16.0774 12.9156C16.1122 12.8444 16.134 12.7733 16.1426 12.705C16.1513 12.6353 16.1615 12.5758 16.1731 12.5235C16.1755 12.5163 16.1778 12.5093 16.1801 12.5026C16.1887 12.4769 16.196 12.4551 16.2006 12.4378C16.2064 12.4161 16.2151 12.387 16.2282 12.3522L16.2528 12.3493C16.2934 12.252 16.3369 12.1576 16.3862 12.0676C16.4355 11.9776 16.4746 11.8846 16.5065 11.7873C16.5282 11.6842 16.5703 11.6087 16.6326 11.5637C16.6949 11.5187 16.7761 11.4911 16.8761 11.4795L17.0139 11.4635C17.2719 11.4171 17.5285 11.375 17.7865 11.3372C18.0445 11.2994 18.2967 11.2573 18.5461 11.2123C18.5951 11.2031 18.6438 11.194 18.6923 11.1849C18.8733 11.151 19.0504 11.1178 19.223 11.0845C19.3956 11.0513 19.5727 11.0182 19.7535 10.9842C19.8021 10.9751 19.8509 10.966 19.9 10.9568C20.3842 10.9016 20.8147 10.7854 21.1916 10.6068C20.9466 10.617 20.7031 10.6344 20.461 10.6576C20.2174 10.6809 19.9783 10.6969 19.7434 10.707C19.526 10.7317 19.2999 10.7622 19.0679 10.797C18.8345 10.8319 18.6055 10.8537 18.3779 10.8624C18.1358 10.89 17.8952 10.9263 17.6546 10.9698C17.4139 11.0148 17.1588 11.0352 16.8877 11.0323C16.9747 10.8275 17.0718 10.6344 17.1835 10.4529C17.2951 10.2714 17.411 10.0884 17.5343 9.90549C17.4864 9.85177 17.4473 9.80095 17.4154 9.75448C17.3835 9.70802 17.3226 9.68914 17.2313 9.6993C17.1646 9.70656 17.0994 9.72254 17.0341 9.74722C16.9689 9.7719 16.9153 9.81256 16.8703 9.86774C16.8558 9.88662 16.8457 9.90694 16.8399 9.92873C16.8327 9.95051 16.8225 9.97083 16.808 9.98971C16.7703 10.0957 16.7225 10.2032 16.6674 10.3106C16.6109 10.4195 16.5572 10.5313 16.5021 10.6475C16.4558 10.8304 16.3731 11.0047 16.2572 11.1702L15.9571 11.2036L13.716 11.4592C13.6494 11.4679 13.5769 11.4795 13.4986 11.4969C13.4203 11.5144 13.342 11.5536 13.2638 11.6131C13.3174 11.6407 13.3652 11.6697 13.4073 11.6988C13.4493 11.7293 13.4957 11.7481 13.5479 11.7597C13.703 11.7931 13.8537 11.8106 13.9973 11.8106C14.1408 11.812 14.293 11.8019 14.451 11.7844C14.6684 11.7597 14.883 11.7307 15.0946 11.6988C15.3077 11.6668 15.5135 11.6392 15.7136 11.616C15.773 11.6102 15.8237 11.6087 15.8658 11.6116C15.9078 11.616 15.9542 11.6145 16.0049 11.6087C16.06 11.7133 16.0716 11.8178 16.0412 11.9224C16.0093 12.0109 15.9803 12.0952 15.9557 12.1736C15.931 12.2534 15.8933 12.3289 15.8426 12.403C15.7455 12.6005 15.6643 12.8052 15.5947 13.0158C15.5599 13.121 15.5255 13.2267 15.4911 13.3323C15.4566 13.4379 15.4222 13.5436 15.3874 13.6488C15.3686 13.7868 15.3454 13.9175 15.3178 14.0438C15.2888 14.1701 15.2729 14.2921 15.27 14.4112C15.2816 14.6551 15.3729 14.8715 15.5469 15.0588C15.7208 15.2461 15.9296 15.3434 16.176 15.3492C16.4717 15.3579 16.7428 15.2795 16.9863 15.1169C17.0805 15.0559 17.153 14.9746 17.2124 14.8802C17.2137 14.8819 17.215 14.8837 17.2163 14.8856C17.2195 14.8901 17.2228 14.8949 17.2269 14.8991C17.2835 14.9528 17.3632 14.9862 17.4661 14.9992C17.5009 15.0123 17.5314 15.0167 17.556 15.0138L17.643 15.0036C17.7502 14.9746 17.83 14.931 17.8822 14.8744C18.0126 14.7495 18.1532 14.5985 18.3069 14.4199C18.4605 14.2413 18.5722 14.0511 18.6417 13.8478C18.6562 13.8289 18.6664 13.8086 18.6722 13.7868C18.678 13.765 18.691 13.736 18.7128 13.6997C18.72 13.691 18.7258 13.6793 18.7287 13.6663C18.7316 13.6532 18.7403 13.6372 18.7548 13.6184C18.7708 13.6082 18.7838 13.598 18.7954 13.5879C18.807 13.5777 18.82 13.5675 18.836 13.5574C18.9621 13.5428 19.0868 13.4993 19.2143 13.4252C19.2955 13.3904 19.3955 13.3584 19.5144 13.3279C19.5622 13.3149 19.6072 13.3018 19.6507 13.2887C19.6376 13.3483 19.6275 13.4078 19.6246 13.4673C19.6144 13.5182 19.6101 13.5487 19.6101 13.5574C19.6046 13.5695 19.5993 13.5811 19.5943 13.5922C19.5807 13.6222 19.5689 13.6484 19.5593 13.6706C19.5463 13.7011 19.5332 13.7389 19.5216 13.7824C19.4869 13.8536 19.4535 13.9334 19.4216 14.022C19.3897 14.1106 19.3564 14.1905 19.3216 14.2616C19.2796 14.3342 19.2593 14.4257 19.2636 14.5346C19.2723 14.6101 19.3057 14.6725 19.3607 14.7175C19.3912 14.7568 19.4303 14.7742 19.4811 14.7684C19.5173 14.7814 19.5521 14.7843 19.5898 14.7756C19.6275 14.7669 19.6521 14.7451 19.6652 14.7088C19.7318 14.6232 19.7811 14.536 19.813 14.446C19.8304 14.3836 19.8522 14.327 19.8753 14.2732C19.8985 14.2195 19.9246 14.1658 19.9522 14.112C19.9696 14.0409 19.9928 13.9814 20.0203 13.932C20.0478 13.8826 20.0797 13.8347 20.1174 13.7882C20.1377 13.7345 20.1841 13.704 20.2595 13.6953C20.2667 13.6866 20.2783 13.6851 20.2914 13.6924C20.3044 13.6997 20.3131 13.7127 20.3146 13.7287C20.3102 13.8391 20.3015 13.9131 20.2885 13.948C20.2682 14.0017 20.2551 14.0525 20.2479 14.099C20.2406 14.1469 20.2305 14.1919 20.2189 14.2355C20.2102 14.2369 20.2073 14.2543 20.2116 14.2877C20.2348 14.3357 20.2609 14.3778 20.2899 14.4126C20.3189 14.4489 20.3566 14.4809 20.4015 14.5099C20.5088 14.5665 20.6016 14.5564 20.677 14.478C20.7379 14.4184 20.7828 14.3574 20.8089 14.295C20.8379 14.25 20.8654 14.2064 20.8901 14.1658C20.9147 14.1251 20.9408 14.083 20.9698 14.0365C21.006 13.9814 21.0437 13.9247 21.0843 13.8652C21.1234 13.8057 21.1611 13.7447 21.1959 13.6808C21.3046 13.5254 21.4163 13.3686 21.5293 13.2118C21.6438 13.055 21.7642 12.9069 21.8917 12.7646C21.9207 12.7268 21.9497 12.6934 21.9758 12.6658C22.0019 12.6368 22.0338 12.6034 22.0715 12.5656C22.0874 12.5482 22.1019 12.5366 22.1193 12.5351C22.1353 12.5264 22.1541 12.5235 22.1758 12.5293C22.1976 12.5366 22.2092 12.5482 22.2106 12.5642C22.215 12.6048 22.2135 12.6353 22.2077 12.6527C22.2019 12.6876 22.1903 12.7224 22.1686 12.7587C22.1367 12.856 22.1092 12.9504 22.086 13.0419C22.0613 13.1334 22.0338 13.2278 22.0033 13.325C21.999 13.3686 21.9917 13.4093 21.9787 13.4485C21.976 13.4577 21.9732 13.4671 21.9703 13.4766C21.961 13.5076 21.9513 13.54 21.9425 13.5733C21.9091 13.6532 21.8787 13.7345 21.8497 13.8187C21.8207 13.903 21.7903 13.9843 21.7569 14.0641C21.725 14.16 21.6931 14.2514 21.6612 14.3371C21.6279 14.4213 21.596 14.5099 21.5641 14.5999C21.5293 14.6725 21.5018 14.7669 21.4815 14.8816C21.4438 15.0806 21.509 15.2388 21.6743 15.355C21.7308 15.4087 21.8004 15.4305 21.8845 15.4203C21.9338 15.4058 21.9802 15.3898 22.0251 15.3724C22.0686 15.355 22.1106 15.326 22.1483 15.2882C22.2701 15.1807 22.386 15.0443 22.4948 14.8802C22.5832 14.7684 22.6702 14.6609 22.7557 14.5564C22.786 14.5187 22.8169 14.4806 22.8482 14.442C22.9036 14.3737 22.9601 14.304 23.0166 14.2326C23.0615 14.1846 23.1079 14.1295 23.1558 14.0641C23.2022 14.0002 23.2572 13.9422 23.3196 13.8928C23.3776 13.81 23.4442 13.7258 23.5196 13.6416C23.595 13.5574 23.6602 13.4659 23.7168 13.3657C23.7458 13.3207 23.7574 13.2728 23.7516 13.2219C23.7549 13.2117 23.7583 13.203 23.7612 13.1958ZM110.51 14.25C111.243 12.9548 111.61 11.3604 111.61 9.46988V9.46843C111.61 7.57787 111.243 5.98499 110.51 4.68832C109.776 3.3931 108.785 2.41152 107.538 1.74504C106.291 1.07855 104.911 0.746033 103.366 0.746033C101.821 0.746033 100.425 1.07855 99.181 1.74504C97.9372 2.41007 96.9486 3.39165 96.218 4.68832C95.486 5.98499 95.1207 7.58804 95.1207 9.46843C95.1207 11.3488 95.486 12.9359 96.218 14.2326C96.9486 15.5292 97.9358 16.5123 99.181 17.1846C100.426 17.8569 101.832 18.1923 103.366 18.1923C104.9 18.1923 106.291 17.8598 107.538 17.1933C108.785 16.5282 109.776 15.5467 110.51 14.25ZM106.472 6.89542C106.741 7.59385 106.874 8.45345 106.874 9.46988C106.874 10.4863 106.741 11.3445 106.472 12.0443C106.204 12.7428 105.81 13.2742 105.288 13.6358C104.766 13.9973 104.126 14.1788 103.363 14.1788C102.601 14.1788 101.96 13.9973 101.438 13.6358C100.916 13.2742 100.522 12.7442 100.254 12.0443C99.9855 11.3459 99.8521 10.4863 99.8521 9.46988C99.8521 8.45345 99.9855 7.5953 100.254 6.89542C100.522 6.19699 100.916 5.66554 101.438 5.30398C101.96 4.94242 102.601 4.76092 103.363 4.76092C104.126 4.76092 104.766 4.94242 105.288 5.30398C105.81 5.66554 106.204 6.19553 106.472 6.89542ZM45.5474 7.34692H45.5504L45.5475 7.34837L45.5474 7.34692ZM44.7937 4.53723C45.2081 5.3558 45.4589 6.29188 45.5474 7.34692H40.8813C40.8479 6.96068 40.761 6.60929 40.6204 6.29419C40.4797 5.9791 40.287 5.70757 40.0405 5.47815C39.7955 5.24873 39.4984 5.07158 39.1505 4.94815C38.8026 4.82328 38.4083 4.76084 37.9662 4.76084C37.1935 4.76084 36.5412 4.94815 36.0078 5.32423C35.4758 5.70031 35.0728 6.23902 34.7988 6.9418C34.5263 7.64314 34.3886 8.48677 34.3886 9.47126C34.3886 10.5109 34.5277 11.3792 34.806 12.0791C35.0844 12.779 35.4888 13.3032 36.0194 13.6546C36.5485 14.006 37.1863 14.1817 37.9314 14.1817C38.3561 14.1817 38.7373 14.1279 39.0736 14.0205C39.4099 13.913 39.7028 13.7562 39.9506 13.5515C40.1985 13.3467 40.4015 13.0999 40.5595 12.8095C40.716 12.5191 40.8233 12.1924 40.8784 11.8265L45.5475 11.8599C45.4924 12.5786 45.2909 13.309 44.943 14.0524C44.5951 14.7959 44.1023 15.4812 43.4659 16.1085C42.8281 16.7358 42.041 17.2411 41.1031 17.6215C40.1652 18.0034 39.0751 18.1937 37.8328 18.1937C36.2759 18.1937 34.8814 17.8597 33.6478 17.1903C32.4142 16.5209 31.4401 15.5379 30.7254 14.2383C30.0108 12.9387 29.6528 11.3502 29.6528 9.4698C29.6528 7.58941 30.0166 5.98636 30.7457 4.68969C31.4749 3.39302 32.4563 2.41144 33.6928 1.74641C34.9293 1.07992 36.3093 0.747406 37.8313 0.747406C38.9026 0.747406 39.8869 0.894062 40.7871 1.18737C41.6873 1.48069 42.4758 1.90758 43.1542 2.46807C43.8327 3.02856 44.3792 3.71828 44.7937 4.53723ZM8.39018 32.2741V29.704C11.3836 30.719 14.6553 30.7175 17.6444 29.704V32.2741C17.6444 32.6139 17.4719 32.9305 17.1877 33.1163L16.1933 33.7639C15.4294 34.262 14.9742 35.1027 14.9742 36.0146V39.5503C14.9742 40.1471 14.4915 40.6321 13.8943 40.6321H12.1403C11.5445 40.6321 11.0603 40.1485 11.0603 39.5503V36.0146C11.0603 35.1012 10.6052 34.2605 9.84122 33.7639L8.8468 33.1163C8.56123 32.9305 8.39018 32.6139 8.39018 32.2741ZM57.6704 0.97839H62.2729V11.8571C62.2729 13.1508 61.9656 14.2689 61.3495 15.2113C60.7334 16.1536 59.8767 16.8811 58.7794 17.3922C57.682 17.9034 56.4064 18.1589 54.9553 18.1589C53.5043 18.1589 52.2127 17.9034 51.1139 17.3922C50.0151 16.8811 49.1613 16.1536 48.5525 15.2113C47.9422 14.2689 47.6378 13.1508 47.6378 11.8571V0.97839H52.2403V11.4592C52.2403 11.9848 52.3562 12.4524 52.5882 12.8648C52.8201 13.2772 53.1419 13.5981 53.5521 13.8304C53.9624 14.0627 54.4306 14.1789 54.9553 14.1789C55.4801 14.1789 55.9541 14.0627 56.3629 13.8304C56.7717 13.5981 57.092 13.2757 57.3225 12.8648C57.5545 12.4524 57.6704 11.9848 57.6704 11.4592V0.97839ZM72.9811 4.99182C73.3479 5.30111 73.5523 5.73236 73.5972 6.28559H73.5987H78.0025C77.9967 5.17478 77.7227 4.20337 77.1792 3.37135C76.6356 2.53933 75.8644 1.89463 74.8656 1.43578C73.8668 0.976938 72.655 0.747516 71.3141 0.747516C69.9732 0.747516 68.786 0.974034 67.751 1.42707C66.716 1.88011 65.9086 2.51174 65.3259 3.32198C64.7431 4.13222 64.4546 5.07604 64.4604 6.15346C64.4546 7.48062 64.8837 8.52754 65.7477 9.29276C66.6116 10.0594 67.7931 10.604 69.2948 10.9307L70.9836 11.2951C71.6127 11.4345 72.1128 11.5812 72.4825 11.7394C72.8521 11.8963 73.1189 12.0734 73.2812 12.2694C73.4436 12.4655 73.5276 12.6934 73.5334 12.9534C73.5276 13.2292 73.4392 13.4761 73.2682 13.691C73.0971 13.9059 72.8449 14.0743 72.5144 14.1963C72.1824 14.3183 71.7722 14.3793 71.2808 14.3793C70.6966 14.3793 70.1921 14.2892 69.7703 14.1063C69.347 13.9233 69.0209 13.6561 68.7889 13.3018C68.557 12.949 68.428 12.5119 68.4004 11.9921H64.0299C64.0357 13.4122 64.3401 14.5782 64.9446 15.4872C65.5491 16.3976 66.3985 17.0699 67.4944 17.5069C68.5889 17.944 69.9124 18.1618 71.3475 18.1618C72.7825 18.1618 74.0118 17.96 75.0352 17.5563C76.0586 17.1541 76.8457 16.5646 77.398 15.7906C77.9503 15.0167 78.2287 14.0714 78.2345 12.9548C78.2287 12.3072 78.1257 11.7104 77.9242 11.163C77.7227 10.6156 77.4096 10.1233 76.9849 9.68336C76.5602 9.24339 76.0137 8.86151 75.3454 8.5348C74.6772 8.20809 73.8741 7.94527 72.9362 7.74634L71.546 7.44722C71.1431 7.36446 70.7952 7.27007 70.5023 7.16553C70.2095 7.05953 69.9689 6.94336 69.7819 6.81268C69.5934 6.682 69.4572 6.53534 69.3717 6.37271C69.2861 6.20863 69.2484 6.02568 69.26 5.82094C69.2658 5.57264 69.3398 5.35048 69.4833 5.15736C69.6268 4.96424 69.8486 4.81032 70.1501 4.69706C70.4501 4.5838 70.8372 4.52717 71.3127 4.52717C72.0578 4.52717 72.6144 4.68254 72.9811 4.99182ZM79.5246 4.6927V0.97839H94.2597V4.6927H89.16V17.96H84.6243V4.6927H79.5246ZM113.73 0.97839H119.458L123.398 10.5967H123.596L127.538 0.97839H133.267V17.9614H128.763V8.14275H128.631L124.856 17.8278H122.141L118.366 8.07596H118.234V17.96H113.73V0.97839ZM150.757 5.80784C150.911 6.03145 151.024 6.28992 151.097 6.58323H151.1H155.751C155.663 5.73233 155.415 4.94969 155.006 4.23673C154.597 3.52378 154.061 2.90667 153.396 2.38393C152.73 1.8612 151.966 1.45753 151.102 1.17293C150.238 0.888333 149.305 0.746033 148.3 0.746033C147.158 0.746033 146.087 0.937702 145.088 1.32249C144.089 1.70728 143.208 2.27358 142.447 3.02283C141.684 3.77208 141.09 4.68832 140.662 5.77154C140.235 6.85476 140.02 8.09916 140.02 9.50328C140.02 11.2936 140.368 12.8386 141.067 14.1382C141.766 15.4363 142.738 16.4382 143.985 17.1396C145.232 17.8409 146.681 18.1923 148.331 18.1923C149.809 18.1923 151.121 17.9004 152.266 17.3167C153.412 16.733 154.312 15.8937 154.966 14.796C155.619 13.6982 155.947 12.3754 155.947 10.8275V8.47233H148.431V11.7554H151.51C151.498 12.2302 151.383 12.6442 151.163 12.9998C150.931 13.3759 150.583 13.6663 150.117 13.871C149.65 14.0757 149.066 14.1774 148.366 14.1774C147.571 14.1774 146.906 13.9901 146.371 13.614C145.835 13.2379 145.433 12.6963 145.162 11.9892C144.891 11.282 144.756 10.4195 144.756 9.43503C144.756 8.45055 144.898 7.61127 145.182 6.91429C145.466 6.21731 145.881 5.68442 146.425 5.31415C146.968 4.94388 147.626 4.75802 148.399 4.75802C148.757 4.75802 149.086 4.79867 149.388 4.87853C149.688 4.95985 149.953 5.07892 150.182 5.23574C150.411 5.39256 150.602 5.58423 150.757 5.80784ZM174.524 9.46988C174.524 11.3604 174.157 12.9548 173.423 14.25C172.69 15.5467 171.698 16.5282 170.452 17.1933C169.205 17.8598 167.813 18.1923 166.28 18.1923C164.746 18.1923 163.34 17.8569 162.095 17.1846C160.85 16.5123 159.862 15.5292 159.132 14.2326C158.4 12.9359 158.034 11.3488 158.034 9.46843C158.034 7.58804 158.4 5.98499 159.132 4.68832C159.862 3.39165 160.851 2.41007 162.095 1.74504C163.338 1.07855 164.734 0.746033 166.28 0.746033C167.825 0.746033 169.205 1.07855 170.452 1.74504C171.698 2.41152 172.69 3.3931 173.423 4.68832C174.157 5.98499 174.524 7.57787 174.524 9.46843V9.46988ZM169.788 9.46988C169.788 8.45345 169.654 7.59385 169.386 6.89542C169.118 6.19553 168.724 5.66554 168.202 5.30398C167.68 4.94242 167.039 4.76092 166.277 4.76092C165.514 4.76092 164.874 4.94242 164.352 5.30398C163.83 5.66554 163.436 6.19699 163.167 6.89542C162.899 7.5953 162.766 8.45345 162.766 9.46988C162.766 10.4863 162.899 11.3459 163.167 12.0443C163.436 12.7442 163.83 13.2742 164.352 13.6358C164.874 13.9973 165.514 14.1788 166.277 14.1788C167.039 14.1788 167.68 13.9973 168.202 13.6358C168.724 13.2742 169.118 12.7428 169.386 12.0443C169.654 11.3445 169.788 10.4863 169.788 9.46988ZM176.643 0.97839V17.96H188.1V14.2457H181.245V0.97839H176.643ZM189.954 17.96V0.97839H201.874V4.6927H194.557V7.6113H201.147V11.3256H194.557V17.96H189.954ZM29.7223 24.0294V41.0125H37.7009C38.9316 41.0125 39.9913 40.8048 40.8799 40.391C41.7685 39.9772 42.4541 39.408 42.9368 38.6834C43.4195 37.9589 43.6616 37.1326 43.6616 36.2033C43.6616 35.4018 43.4848 34.7034 43.1311 34.1095C42.7788 33.5156 42.3033 33.0481 41.7076 32.7083C41.1103 32.3685 40.4493 32.1841 39.7202 32.1565V31.991C40.3768 31.8588 40.9509 31.6193 41.4423 31.2737C41.9337 30.9281 42.3164 30.4983 42.5889 29.9843C42.8629 29.4702 42.9992 28.901 42.9992 28.2767C42.9992 27.4142 42.7745 26.6649 42.3251 26.0289C41.8757 25.3929 41.2104 24.9007 40.3305 24.5522C39.4506 24.2037 38.3648 24.0294 37.0732 24.0294H29.7223ZM34.3262 30.8961H36.2122C36.6152 30.8961 36.9703 30.8322 37.2805 30.7059C37.5893 30.5781 37.8314 30.3952 38.0053 30.1541C38.1793 29.9131 38.2662 29.6198 38.2662 29.2713C38.2662 28.7457 38.0792 28.3435 37.7038 28.0647C37.3284 27.7859 36.8543 27.6465 36.2803 27.6465H34.3262V30.8961ZM36.4774 37.3316H34.3248L34.3262 37.3301V33.7479H36.5441C37.0138 33.7479 37.4153 33.8205 37.7487 33.9643C38.0821 34.108 38.3402 34.3186 38.5228 34.5945C38.704 34.8718 38.7953 35.2087 38.7953 35.6066C38.7953 36.1758 38.6025 36.6056 38.2155 36.896C37.8299 37.1864 37.2501 37.3316 36.4774 37.3316ZM49.689 41.0125H44.7227L50.3182 24.0294H56.6094L62.2048 41.0125H57.2385L56.2593 37.7628H50.6697L49.6905 41.0125H49.689ZM53.5305 28.7065L55.2197 34.3128H51.7092L53.3985 28.7065H53.5305ZM63.8283 24.0294V41.011H75.2859V37.2967H68.4307V24.0294H63.8283ZM77.1399 41.011V24.0294H81.7424V37.2967H88.5975V41.011H77.1399ZM95.0859 24.0294V41.0125L95.0874 41.0154H99.6898V35.971H102.238C103.53 35.971 104.66 35.73 105.629 35.2493C106.597 34.7687 107.351 34.0834 107.889 33.1933C108.427 32.3032 108.696 31.2388 108.696 30.0336C108.696 28.8284 108.434 27.7757 107.909 26.874C107.384 25.9723 106.651 25.2738 105.707 24.7758C104.763 24.2777 103.662 24.0294 102.403 24.0294H95.0859ZM99.6898 32.3888H101.312C101.853 32.3888 102.315 32.293 102.699 32.1028C103.083 31.9126 103.378 31.6396 103.585 31.2867C103.792 30.9324 103.895 30.5157 103.895 30.0351C103.895 29.5545 103.792 29.1334 103.585 28.7878C103.378 28.4422 103.083 28.1765 102.699 27.9921C102.315 27.8077 101.854 27.7147 101.312 27.7147H99.6898V32.3888ZM110.385 41.0125V24.0294H117.702C118.961 24.0294 120.062 24.2589 121.006 24.7177C121.95 25.1766 122.683 25.8372 123.208 26.6997C123.733 27.5623 123.995 28.5961 123.995 29.8013C123.995 31.0065 123.725 32.0432 123.188 32.8782C122.685 33.6584 121.994 34.2598 121.115 34.6825L124.558 41.0125H119.558L116.582 35.4076H114.989V41.0139H110.386L110.385 41.0125ZM116.611 31.8254H114.989V27.7133H116.611C117.153 27.7133 117.614 27.7859 117.998 27.9325C118.382 28.0792 118.677 28.3057 118.884 28.6121C119.091 28.9199 119.194 29.3221 119.194 29.8028C119.194 30.2834 119.091 30.674 118.884 30.9716C118.677 31.2693 118.382 31.4871 117.998 31.6222C117.614 31.7572 117.152 31.8254 116.611 31.8254ZM130.55 41.0125V24.0294H125.948V41.0125H130.55ZM147.405 24.0294V41.0125H143.563L137.437 32.0897H137.337V41.0125H132.735V24.0294H136.643L142.669 32.9188H142.801V24.0294H147.403H147.405ZM149.127 24.0294V27.7438H154.226V41.011H158.762V27.7438H163.862V24.0294H149.127ZM170.186 24.0294V41.0125H165.584V24.0294H170.186ZM187.039 41.0125V24.0294H187.038H182.435V32.9188H182.303L176.277 24.0294H172.369V41.0125H176.972V32.0897H177.072L183.198 41.0125H187.039ZM200.235 29.6358C200.162 29.3425 200.049 29.084 199.896 28.8604C199.741 28.6368 199.549 28.4451 199.32 28.2883C199.091 28.13 198.826 28.0124 198.526 27.9311C198.224 27.8512 197.895 27.8106 197.537 27.8106C196.765 27.8106 196.106 27.9964 195.563 28.3667C195.019 28.737 194.605 29.2699 194.321 29.9669C194.036 30.6638 193.894 31.5031 193.894 32.4876C193.894 33.4721 194.029 34.3346 194.3 35.0417C194.571 35.7489 194.973 36.2905 195.509 36.6666C196.044 37.0426 196.71 37.23 197.504 37.23C198.204 37.23 198.788 37.1283 199.255 36.9236C199.722 36.7188 200.07 36.4284 200.302 36.0523C200.521 35.6968 200.637 35.2828 200.648 34.808H197.569V31.5249H205.085V33.8801C205.085 35.428 204.758 36.7508 204.104 37.8485C203.45 38.9463 202.55 39.7855 201.405 40.3693C200.26 40.953 198.948 41.2434 197.469 41.2434C195.819 41.2434 194.37 40.892 193.123 40.1907C191.877 39.4893 190.904 38.4874 190.205 37.1893C189.507 35.8897 189.159 34.3448 189.159 32.5544C189.159 31.1503 189.373 29.9059 189.801 28.8227C190.228 27.7394 190.823 26.8232 191.585 26.0739C192.346 25.3247 193.228 24.7584 194.226 24.3736C195.225 23.9888 196.296 23.7971 197.439 23.7971C198.443 23.7971 199.377 23.9394 200.241 24.224C201.105 24.5086 201.869 24.9123 202.534 25.435C203.199 25.9578 203.736 26.5749 204.144 27.2878C204.553 28.0008 204.801 28.7834 204.89 29.6343H200.238L200.235 29.6358ZM18.5274 12.5642C18.5274 12.5555 18.5433 12.5497 18.5767 12.5453H18.5782C18.597 12.5613 18.6072 12.5773 18.6086 12.5933L18.6115 12.618L18.6115 12.6222L18.6115 12.6224C18.61 12.6892 18.6086 12.7547 18.6086 12.8216C18.6086 12.8899 18.5941 12.951 18.5666 13.0048C18.5535 13.0324 18.5346 13.06 18.5129 13.0876C18.4983 13.1065 18.4795 13.1167 18.4591 13.1196C18.4374 13.1211 18.4185 13.1153 18.3996 13.1007C18.3793 13.0687 18.3677 13.0498 18.3677 13.0411C18.3663 13.0237 18.3619 13.0106 18.3561 12.9975C18.3488 12.9859 18.3503 12.9699 18.3561 12.9524C18.3634 12.7998 18.42 12.6704 18.5274 12.5642ZM18.1677 13.3033C18.1373 13.2553 18.1068 13.2089 18.0749 13.161C18.0648 13.145 18.0416 13.1319 18.0068 13.1174C17.9981 13.1101 17.9764 13.1087 17.943 13.1116C17.9271 13.113 17.9068 13.1276 17.8851 13.1566C17.8503 13.2205 17.8155 13.2916 17.7821 13.3715C17.7097 13.5487 17.656 13.7084 17.6198 13.8478C17.585 13.9872 17.5531 14.1527 17.5241 14.3415L17.5285 14.3792C17.5212 14.3966 17.5212 14.4141 17.5285 14.43C17.5357 14.446 17.5458 14.4533 17.5632 14.4518C17.5908 14.4663 17.6111 14.4634 17.6256 14.4446C17.7937 14.3574 17.93 14.2282 18.0373 14.054C18.1445 13.8797 18.2315 13.7185 18.2996 13.5661C18.3054 13.5487 18.3083 13.5269 18.3054 13.5022C18.3011 13.4688 18.2953 13.4485 18.2851 13.4412C18.2373 13.3962 18.1982 13.3497 18.1677 13.3018V13.3033Z" fill="url(#paint0_linear_533_844)"/>
<defs>
<linearGradient id="paint0_linear_533_844" x1="0" y1="0.746033" x2="4.94978" y2="50.879" gradientUnits="userSpaceOnUse">
<stop stop-color="#2EC4B6"/>
<stop offset="1" stop-color="#008FBC"/>
</linearGradient>
</defs>
</svg>
